<svg width="1026" height="1026" viewBox="0 0 1026 1026" fill="none" xmlns="http://www.w3.org/2000/svg">
<path fill-rule="evenodd" clip-rule="evenodd" d="M445.669 24.0751C228.352 51.1538 53.7624 226.59 26.9068 444.869C2.64705 642.03 99.7939 832.917 273.524 929.456C492.998 1051.41 775.138 981.915 911.504 772.306C923.387 754.041 927.247 747.377 939.652 723.72C994.815 618.506 1006.63 485.747 971.445 366.315C918.793 187.571 759.171 49.3763 577.487 25.2447C566.157 23.7391 456.193 22.7644 445.669 24.0751ZM483.118 54.7063L482.864 61.3189L474.487 61.8704C441.065 64.0711 412.539 69.7988 383.134 80.2178C376.747 82.4801 364.671 86.6637 356.294 89.5159C339.937 95.0871 337.477 96.2645 320.086 106.835C313.841 110.634 305.725 115.248 302.052 117.092C265.131 135.63 206.241 186.299 172.165 228.847C115.24 299.92 94.3766 342.068 74.9544 425.228C71.1967 441.321 71.0633 440.334 77.9529 447.359C81.1848 450.655 84.9323 455.49 86.3969 458.258C90.96 466.876 95.9335 471.006 107.343 475.638C113.899 478.301 113.758 478.919 109.541 465.976C97.193 428.073 93.6173 407.076 96.6697 390.393C98.5011 380.374 98.4396 380.405 104.339 386.499C112.283 394.705 119.744 397.655 128.145 395.91C138.01 393.863 140.052 387.748 137.515 367.844C132.621 329.464 157.909 250.544 172.196 259.604C173.84 260.645 174.825 270.82 174.689 285.356C174.425 313.525 176.41 325.422 180.604 320.787C188.107 312.499 192.424 291.299 188.789 280.608C186.681 274.409 186.991 272.131 190.315 269.371C192.878 267.245 194.063 260.435 194.794 243.675C196.387 207.026 205.957 190.126 232.72 176.693C244.37 170.847 244.014 170.478 239.548 183.759C235.249 196.541 234.798 200.68 237.35 203.925C239.579 206.76 240.694 206.062 251.334 195.179C261.484 184.79 267.699 181.081 269.653 184.241C270.282 185.26 261.976 197.033 254.999 205.008C232.966 230.204 220.351 249.287 225.73 249.287C227.408 249.287 230.942 245.209 238.432 234.633C257.064 208.332 265.124 208.127 248.266 234.382C242.028 244.098 236.924 254.463 237.563 256.126C240.22 263.051 247.551 258.262 252.463 246.389C255.977 237.899 259.157 234.185 265.842 230.765C272.257 227.485 272.657 226.472 269.974 220.29C265.113 209.083 271.793 195.358 289.365 180.44C292.23 178.008 294.575 175.641 294.575 175.179C294.575 174.166 288.011 171.929 282.75 171.147C280.657 170.837 278.944 170.262 278.944 169.872C278.944 169.098 279.606 168.941 288.491 167.589C297.376 166.238 301.157 163.796 308.357 154.759C324.739 134.198 345.431 118.603 366.328 111.067C381.567 105.57 383.955 112.298 372.402 128.181C366.12 136.817 365.956 138.787 371.409 140.162C376.114 141.344 376.15 141.449 374.021 147.546C368.955 162.044 355.173 177.865 330.003 198.074C314.466 210.548 314.03 211.161 322.572 208.486C328.615 206.593 343.512 202.343 346.475 201.665C350.897 200.655 348.24 203.792 340.594 208.606C338.131 210.156 333.099 213.662 329.413 216.396C323.793 220.562 322.313 221.303 320.263 220.97C317.383 220.503 308.603 223.399 308.603 224.817C308.603 225.348 309.503 226.195 310.606 226.697C314.464 228.454 313.304 229.768 298.984 239.858C296.116 241.877 292.164 245.183 290.199 247.21C286.01 251.521 285.12 251.655 280.906 248.584C276.438 245.332 274.937 245.047 271.928 246.879C268.276 249.1 268.553 249.623 275.366 253.36L281.404 256.677L279.203 259.593C277.992 261.199 274.463 265.626 271.359 269.43C268.258 273.237 264.29 278.187 262.546 280.431C258.714 285.356 258.329 285.531 254.392 284.128C245.201 280.852 233.23 285.941 240.115 290.196C242.787 291.846 243.393 291.925 247.027 291.086C254.563 289.345 254.466 289.655 243.785 301.303C232.974 313.094 231.548 315.164 224.386 329.505C221.211 335.864 216.145 345.431 213.128 350.766C210.112 356.102 206.411 363.314 204.9 366.798C203.392 370.278 200.914 375.832 199.395 379.14C195.866 386.82 191.598 400.43 186.07 421.622C185.208 424.928 183.851 432.233 183.054 437.853C181.245 450.642 181.056 450.596 178.344 436.65C176.292 426.09 173.394 416.387 166.794 397.975C155.757 367.187 151.507 321.523 160.105 326.124C162.159 327.225 162.716 331.362 162.718 345.521C162.718 357.666 162.978 359.1 165.191 359.1C168.277 359.1 168.261 334.868 165.16 312.055C162.795 294.659 161.687 293.505 157.258 303.84C145.548 331.157 141.611 363.673 147.585 383.686C151.227 395.885 151.586 398.673 152.305 420.419C152.995 441.301 153.325 444.945 155.816 458.894C158.243 472.476 165.868 498.703 169.983 507.611C171.437 510.763 172.74 509.876 172.455 505.926C172.181 502.14 172.886 501.794 178.424 502.986C180.009 503.33 180.13 504.028 180.635 515.722C182.982 570.164 201.117 626.791 229.175 667.3C233.448 673.474 237.25 679.022 237.619 679.633C237.988 680.243 238.227 683.308 238.147 686.445C237.647 706.134 245.273 729.422 252.216 729.422C255.807 729.422 261.953 721.527 263.292 715.194C263.992 711.875 264.323 711.913 268.812 715.863C273.308 719.824 273.306 719.785 269.41 724.469C266.193 728.334 263.266 733.646 260.532 740.582L258.962 744.561L262.456 752.022C264.377 756.124 268.476 765.07 271.564 771.906C274.652 778.739 280.116 790.777 283.704 798.656C291.02 814.716 291.025 814.749 285.538 811.048C283.361 809.578 278.228 806.113 274.132 803.345C261.071 794.524 231.14 781.453 213.216 776.741C202.286 773.871 199.793 773.763 195.445 775.982C190.364 778.575 169.423 771.206 173.468 768.251C178.963 764.232 195.463 763.077 207.883 765.84C213.626 767.117 216.417 767.035 214.334 765.65C209.332 762.321 202.766 756.157 199.634 751.85C193.529 743.46 186.57 738.723 165.522 728.629C147.131 719.811 131.733 709.43 112.17 692.655C107.568 688.71 103.698 685.583 103.57 685.707C103.151 686.114 117.864 715.797 122.402 723.702C131.307 739.207 142.042 753.954 169.413 788.268C173.004 792.77 177 797.784 178.291 799.411C181.138 802.991 182.128 803.102 183.313 799.962C184.559 796.658 186.268 796.238 191.926 797.843C201.54 800.567 203.376 800.865 206.113 800.134C209.445 799.246 209.555 796.563 206.452 791.875C203.21 786.975 205.185 787.545 214.916 794.314C251.909 820.043 276.127 833.971 301.865 844.316C326.127 854.066 331.873 848.094 309.403 836.475C300.141 831.686 295.778 827.602 295.778 823.729C295.778 818.243 303.457 821.567 317.013 832.925C345.423 856.728 364.345 857.615 347.865 834.371C330.534 809.924 312.117 790.528 295.016 778.708C273.216 763.639 265.772 754.328 275.489 754.282C279.054 754.266 279.387 753.143 276.83 749.788C273.539 745.476 273.439 729.335 276.689 727.324C278.462 726.231 284.556 733.913 284.556 737.243C284.553 740.449 284.587 740.482 290.766 743.714C297.773 747.379 307.718 755.057 316.585 763.652C319.873 766.838 323.662 769.846 325.001 770.334C340.642 776.036 342.974 779.257 359.913 818.597C364.043 828.185 367.777 836.031 368.211 836.031C368.647 836.031 370.876 834.738 373.166 833.161C381.21 827.62 385.637 828.592 393.486 837.614L397.685 842.443L401.156 840.055C405.188 837.28 406.922 833.238 407.709 824.75L408.204 819.43L405.493 817.358C389.613 805.21 383.006 800.785 377.794 798.823C374.631 797.633 371.571 796.091 370.996 795.399C370.422 794.706 367.511 792.529 364.525 790.564C355.494 784.616 358.82 783.515 370.265 788.668C378.363 792.316 384.114 793.544 393.114 793.552C403.772 793.562 417.3 797.728 442.462 808.747C446.651 810.581 452.602 812.941 455.688 813.99C500.632 829.27 515.565 829.793 531.837 816.665C545.324 805.782 551.19 802.753 561.186 801.511C569.004 800.539 571.777 799.959 594.359 794.573C619.758 788.514 625.337 787.586 628.787 788.832C632.337 790.117 633.886 789.612 647.955 782.584C659.839 776.646 659.197 776.605 658.123 783.228C655.64 798.523 657.386 814.388 661.549 814.388C665.389 814.388 677.896 792.287 687.782 768.035L692.137 757.35L703.164 749.026C714.358 740.577 715.068 740.362 713.065 746.041C711.516 750.432 711.156 755.241 712.347 755.649C713.588 756.075 715.738 751.722 718.959 742.247C721.809 733.872 723.161 732.095 733.351 723.312C737.171 720.021 739.99 718.2 741.259 718.2C745.805 718.2 749.485 714.963 752.651 708.181C754.295 704.654 758.712 697.606 762.464 692.519C771.475 680.302 780.163 665.795 789.302 647.698C794.583 637.244 797.71 632.003 799.97 629.833C803.086 626.84 803.166 626.627 803.166 621.276C803.166 617.052 803.791 614.064 805.882 608.282C807.377 604.15 809.75 596.804 811.153 591.953C812.559 587.105 813.895 582.596 814.123 581.934C814.38 581.198 815.472 582.753 816.94 585.944C823.478 600.138 826.533 598.861 839.065 576.704C843.772 568.384 845.419 566.624 850.669 564.303C853.883 562.879 854.466 562.279 854.466 560.396C854.466 552.275 839.499 524.05 830.983 516.111L827.01 512.41L828.033 508.416C828.821 505.343 828.844 503.815 828.133 501.778C826.269 496.425 826.771 495.15 830.498 495.781C833.451 496.279 833.743 496.184 833.353 494.848C833.115 494.032 832.537 491.885 832.073 490.079C831.606 488.273 830.16 485.324 828.857 483.526C825.645 479.093 824.986 476.026 825.902 469.767C826.869 463.152 825.461 448.134 823.206 440.988C821.157 434.496 821.151 433.395 823.175 434.036C828.01 435.57 828.554 432.397 824.481 426.431C819.04 418.462 816.678 412.701 817.217 408.699C817.54 406.299 817.273 403.498 816.457 400.751C815.226 396.608 815.244 396.413 817.196 392.283C820.21 385.915 819.933 384.542 814.88 380.81C810.078 377.263 804.743 367.919 807.518 367.919C808.265 367.919 829.244 379.471 829.69 380.128C829.949 380.51 830.609 386.669 831.152 393.81C836.026 457.765 842.828 499.893 851.498 519.813C853.032 523.34 854.553 527.128 854.876 528.231C856.143 532.55 857.002 532.52 859.449 528.062C870.918 507.188 867.542 458.473 851.298 410.4C844.875 391.386 841.387 378.109 841.307 372.361L841.24 367.588L837.968 366.639C836.167 366.118 830.945 365.336 826.363 364.897C813.998 363.717 808.367 356.927 816.591 353.108C818.466 352.239 820 351.269 820 350.956C820 350.017 807.249 341.879 800.36 338.418C793.38 334.912 791.369 333.032 781.845 321.12C770.595 307.048 768.648 304.409 764.473 297.576C762.215 293.88 758.591 288.827 756.421 286.349C754.254 283.869 751.188 279.836 749.611 277.387C748.034 274.937 745.61 271.669 744.222 270.128C741.903 267.547 736.637 259.447 736.637 258.457C736.637 257.8 746.497 253.296 747.939 253.294C757.865 253.289 754.921 243.588 744.268 241.205C738.658 239.948 733.818 237.116 725.964 230.499C716.104 222.188 709.389 219.641 697.244 219.61C688.933 219.59 679.381 216.95 672.302 212.718C669.552 211.074 666.459 209.222 665.43 208.604C663.64 207.529 663.619 207.411 664.953 205.939C666.705 204.005 668.421 204.018 674.787 206.013C686.769 209.768 685.404 207.934 666.618 195.032C644.228 179.658 623.339 161.905 624.816 159.515C625.047 159.138 627.009 158.243 629.174 157.524C636.674 155.034 637 150.981 630.028 146.944C627.604 145.541 624.211 143.555 622.487 142.534C616.97 139.259 592.282 113.63 593.485 112.424C593.695 112.214 598.063 113.74 603.191 115.815C608.315 117.89 616.649 120.611 621.707 121.861C634.835 125.108 641.088 128.607 655.299 140.662C667.331 150.871 671.53 152.735 675 149.411C683.447 141.319 735.242 166.122 738.705 179.919C739.89 184.642 736.663 183.598 725.692 175.715C708.507 163.365 698.226 158.92 691.203 160.802C682.01 163.267 724.233 209.832 748.459 223.948C750.073 224.889 749.624 223.363 747.169 219.564C736.927 203.72 733.444 198.867 726.644 190.959C716.689 179.386 717.135 178.798 729.55 187.153C741.739 195.356 740.01 195.345 743.858 187.245C747.967 178.593 748.277 170.034 744.991 155.903C741.588 141.267 741.583 141.119 744.573 138.623L747.151 136.471L741.693 133.018C670.335 87.8795 610.614 67.5852 532.325 61.8704L524.799 61.3189L522.911 54.968C520.59 47.1524 518.843 47.8526 537.126 49.2839C607.461 54.7935 668.208 73.4873 724.212 106.858C797.643 150.612 816.865 166.494 862.163 220.831C884.466 247.584 883.55 245.919 880.659 254.494C878.171 261.863 878.279 261.897 869.915 251.103C860.075 238.406 854.071 231.219 837.552 212.359C834.2 208.532 830.262 203.912 828.8 202.094C824.37 196.582 825.107 198.98 831.401 210.579C841.669 229.498 850.941 250.046 861.891 278.143C865.416 287.18 869.904 298.702 871.869 303.75L875.442 312.925L873.28 324.991C872.092 331.626 870.607 339.942 869.981 343.469C869.358 346.996 868.64 350.556 868.386 351.379C867.57 354.024 869.971 352.385 871.846 349.017C872.811 347.288 875.155 344.767 877.056 343.415C883.886 338.559 886.128 310.524 880.564 299.543C877.148 292.797 879.2 283.461 888.234 264.68C900.592 238.989 904.583 242.187 904.534 277.741C904.496 305.794 902.775 319.938 894.392 361.103C889.95 382.913 889.347 386.353 889.97 386.353C890.196 386.353 894.231 383.783 898.935 380.643C903.639 377.501 907.769 375.247 908.11 375.631C908.451 376.019 909.185 385.276 909.739 396.205C911.527 431.405 909.226 452.615 900.877 477.895C896.16 492.175 896.065 493.298 899.474 494.486C906.689 497.002 908.503 495.255 908.767 485.529C909.085 473.863 913.64 462.585 920.645 456.126C939.554 438.7 932.275 487.111 910.434 524.05C897.496 545.932 894.503 560.753 902.357 564.033C905.966 565.541 907.487 564.941 913.073 559.806C920.214 553.242 925.806 554.53 925.806 562.738C925.806 576.861 885.635 629.551 854.848 655.814C839.353 669.032 835.718 674.908 836.593 685.34L837.067 690.978L839.073 689.662C840.771 688.551 848.782 682.049 860.524 672.251C862.02 671.004 863.533 670.165 863.889 670.386C864.515 670.773 863.864 683.791 862.871 690.747C862.263 694.982 863.718 695.315 867.085 691.711C868.999 689.667 870.43 689.085 875.94 688.123C888.206 685.984 897.609 679.61 905.581 668.039C911.655 659.22 910.552 657.728 900.869 661.662C895.416 663.878 888.706 665.297 883.673 665.297C878.9 665.297 878.189 666.497 878.733 673.669C879.31 681.32 875.817 684.929 871.756 680.869C861.46 670.576 903.88 642.966 919.783 649.609C922.261 650.646 922.564 650.625 922.925 649.409C923.144 648.671 925.821 639.767 928.876 629.628C941.555 587.531 945.356 571.88 947.57 552.678C948.924 540.938 948.927 495.263 947.575 480.137C943.384 433.257 935.92 390.783 928.484 371.525C926.914 367.454 925.39 361.691 924.99 358.3C924.598 354.991 923.208 349.402 921.899 345.875C918.832 337.61 911.465 320.507 910.437 319.263C909.621 318.273 912.627 297.635 913.779 296.334C914.092 295.98 915.097 297.422 916.01 299.541C916.926 301.659 919.511 307.295 921.761 312.066C930.923 331.516 937.828 350.194 937.828 355.542C937.828 356.574 939.611 363.014 941.789 369.853C947.744 388.546 952.513 411.839 956.16 440.059C964.948 507.996 964.137 547.145 953.033 591.153C928.263 689.328 893.33 762.936 852.031 803.968C826.048 829.783 810.943 843.344 791.143 858.631C785.631 862.887 778.96 868.158 776.313 870.343C770.128 875.455 746.084 890.658 741.29 892.489C737.712 893.856 737.507 893.849 733.854 892.233C728.886 890.035 729.268 888.598 735.837 884.81C740.867 881.909 746.253 877.494 746.256 876.276C746.256 875.953 735.886 875.688 723.209 875.694C709.428 875.696 697.264 875.304 692.95 874.716C683.388 873.416 665.843 872.521 663.978 873.239C662.647 873.752 662.763 874.037 665.094 875.96C667.608 878.035 667.664 878.218 666.754 881.147C665.412 885.471 666.508 886.21 677.768 888.575C687.733 890.668 695.756 893.872 695.756 895.76C695.756 899.487 688.872 900.102 668.103 898.237C661.293 897.624 656.094 897.506 654.878 897.935C649.189 899.941 643.466 906.204 643.458 910.434C643.451 914.104 644.764 913.963 654.031 909.287L663.065 904.732L670.794 905.242C678.771 905.768 688.079 907.43 689.141 908.515C690.624 910.034 673.166 922.692 665.248 925.839C658.707 928.438 643.995 933.244 621.212 940.226C592.2 949.117 589.942 949.686 578.325 951.028C572.595 951.692 564.841 952.962 561.094 953.852C542.362 958.302 508.273 957.697 469.716 952.231C463.765 951.387 452.764 950.325 445.269 949.868C393.189 946.711 372.523 942.327 344.51 928.489C340.527 926.519 335.271 924.162 332.832 923.249C330.393 922.338 324.667 919.473 320.107 916.885C311.232 911.845 310.15 911.516 308.603 913.381C305.899 916.639 300.238 914.184 272.931 897.907C232.463 873.785 197.538 843.09 164.67 802.753C115.466 742.367 97.3315 711.446 78.6531 656.078C76.4216 649.466 74.1567 642.912 73.618 641.514C72.1457 637.69 73.5821 636.441 79.4534 636.441C85.0195 636.441 86.1737 637.323 89.6698 644.249C91.9783 648.819 92.1143 648.93 97.5828 650.638C100.645 651.595 108.44 654.562 114.909 657.235C124.874 661.349 136.596 665.297 138.854 665.297C140.226 665.297 139.279 663.127 135.56 657.738C123.307 639.988 113.337 617.614 109.397 599.012C106.886 587.152 106.052 585.692 100.071 582.673C91.1062 578.148 84.2294 566.029 88.9644 563.102C94.197 559.868 153.9 612.689 153.9 620.553C153.9 626.001 141.208 623.477 136.017 616.995C129.107 608.369 128.778 608.108 125.505 608.723C122.52 609.282 122.486 609.329 123.033 612.245C126.024 628.225 161.998 677.114 183.546 694.481C198.185 706.28 203.079 705.19 189.682 693.114C170.808 676.106 163.424 668.09 157.201 657.869C151.82 649.025 153.828 646.129 162.423 650.346C167.451 652.81 167.446 652.818 164.327 648.199C156.255 636.235 155.844 629.695 162.652 621.358C166.022 617.231 166.943 617.177 168.523 621.01C192.221 678.46 203.063 695.859 210.23 687.941C218.838 678.427 211.071 648.771 185.198 592.356C170.619 560.565 161.136 554.291 162.385 577.261C162.939 587.457 162.929 587.549 160.815 590.743C154.287 600.608 137.984 586.372 142.204 574.493L143.578 570.62L141.419 566.86C140.231 564.79 132.841 556.787 124.998 549.072C103.59 528.013 92.1117 512.125 75.7675 480.938C73.1127 475.867 70.5785 471.719 70.1373 471.719C68.9344 471.719 68.6214 523.57 69.7244 539.853C71.5404 566.678 75.8419 595.698 81.3951 618.599C82.9187 624.875 84.1628 630.398 84.1628 630.869C84.1628 631.341 81.549 629.923 78.353 627.72C75.157 625.516 71.5583 623.344 70.3605 622.89C69.0806 622.41 68.034 621.312 67.8288 620.238C67.6365 619.229 66.8977 614.979 66.1872 610.791C65.4767 606.602 63.8403 597.045 62.5526 589.55C55.2142 546.861 53.8829 471.334 59.8132 434.447C64.5097 405.252 80.2101 355.276 94.5202 323.967C118.216 272.126 172.204 201.332 218.425 161.487C249.244 134.922 277.176 115.04 301.5 102.351C307.072 99.4451 314.646 95.1282 318.332 92.7581C330.054 85.2196 335.687 82.4545 346.524 78.9174C352.339 77.0193 362.327 73.5924 368.719 71.3019C411.144 56.0966 444.107 49.2249 479.55 48.204L483.372 48.0938L483.118 54.7063ZM510.689 51.2051C513.4 53.9163 513.803 54.791 513.803 57.9972C513.803 61.8858 520.841 76.2139 533.328 97.7496C536.254 102.798 538.65 107.263 538.65 107.674C538.65 108.084 541.182 105.919 544.275 102.862L549.9 97.3033L560.306 97.1802C566.029 97.1135 570.712 97.1725 570.712 97.3135C570.712 97.4546 565.121 103.254 558.288 110.203C544.198 124.528 545.009 123.038 548.582 128.047C550.077 130.143 554.62 138.531 558.678 146.687C562.733 154.841 566.432 161.975 566.893 162.536C567.357 163.098 567.468 163.819 567.139 164.139C565.821 165.43 556.892 153.036 547.494 136.866C544.739 132.128 542.041 128.25 541.495 128.25C540.948 128.25 534.767 134.604 527.754 142.37C514.316 157.255 504.133 166.725 501.563 166.725C499.752 166.725 480.032 147.146 471.693 137.068C464.452 128.317 464.778 128.24 456.203 140.777C443.232 159.743 435.637 168.795 437.286 163.319C437.958 161.092 454.744 132.054 457.475 128.396L459.461 125.734L453.697 120.427C448.257 115.417 445.307 111.921 438.156 102.01L435.129 97.8137L445.81 98.2036L456.49 98.596L462.1 104.66L467.712 110.726L469.677 106.863C470.757 104.739 473.861 99.3938 476.572 94.9845C489.889 73.341 495.586 62.4424 494.653 60.3929C490.195 50.6049 502.843 43.3588 510.689 51.2051ZM505.959 54.7833C506.667 58.4923 502.132 59.2592 499.27 55.9144C496.825 53.0596 495.668 55.5348 498.01 58.6103C500.406 61.7575 510.504 59.6157 509.419 56.1889C508.542 53.429 505.459 52.1747 505.959 54.7833ZM492.19 79.4381C489.34 85.1811 485.283 92.0194 483.172 94.6408C478.108 100.925 478.016 102.105 482.782 99.7041C487.05 97.5495 489.7 94.5126 493.544 87.3716C495.563 83.6241 498.105 79.3483 499.195 77.8708C501.042 75.3725 501.109 74.9698 500.149 72.0611C498.6 67.3646 497.825 68.0828 492.19 79.4381ZM502.006 81.9594C501.583 82.5109 499.329 86.5688 496.994 90.978C491.875 100.656 491.236 101.423 486.191 103.983C482.22 105.996 472.922 114.176 472.922 115.653C472.922 116.087 477.7 121.376 483.544 127.409C489.384 133.442 495.607 140.226 497.369 142.488C501.575 147.885 501.806 147.924 505.146 143.809C506.713 141.873 513.451 134.665 520.118 127.791C526.784 120.917 532.237 114.676 532.237 113.922C532.237 112.288 526.889 107.017 521.685 103.523C519.03 101.741 516.263 98.5088 512.151 92.3887C504.084 80.3794 503.602 79.8818 502.006 81.9594ZM529.031 101.312C529.031 102.082 539.822 122.384 540.902 123.641C546.981 130.728 540.515 114.44 533.423 104.803C531.081 101.625 529.031 99.994 529.031 101.312ZM464.529 118.247C461.431 123.094 461.033 124.19 462.965 122.586C464.257 121.514 468.456 113.822 467.751 113.822C467.535 113.822 466.086 115.812 464.529 118.247ZM350.628 130.984C341.207 135.391 320.961 154.829 327.053 153.62C335.051 152.033 346.154 144.079 351.826 135.876C356.455 129.179 356.255 128.355 350.628 130.984ZM759.881 144.645C759.881 144.928 762.528 148.66 765.76 152.936C782.017 174.438 793.521 197.795 795.843 214.018C796.314 217.325 797.048 222.701 797.474 225.966C798.926 237.152 802.568 237.973 814.926 229.906C823.229 224.486 823.906 223.193 820.905 218.461C816.786 211.966 816.044 205.521 818.076 193.829C818.971 188.671 802.532 173.576 777.049 156.155C772.162 152.815 766.301 148.744 764.024 147.108C761.746 145.469 759.881 144.363 759.881 144.645ZM644.456 165.802C644.456 166.097 645.182 166.792 646.07 167.346C646.955 167.9 654.293 173.517 662.375 179.83C677.504 191.641 688.071 198.787 690.413 198.787C696.772 198.787 683.413 182.115 671.281 174.907C663.83 170.48 644.456 163.904 644.456 165.802ZM217.255 197.269C212.538 203.779 208.491 218.769 206.406 237.439C205.133 248.818 204.764 270.148 205.859 268.884C207.927 266.501 225.233 210.274 226.369 202.255C227.39 195.035 221.29 191.698 217.255 197.269ZM441.234 201.081C458.571 207.296 460.494 230.717 444.44 240.125C440.123 242.657 440.149 242.318 443.912 246.83C447.2 250.772 456.891 264.282 456.891 264.926C456.891 265.141 453.102 265.318 448.475 265.318C438.451 265.318 439.32 265.929 431.577 253.432C425.4 243.467 425.523 243.554 418.816 244.324L414.006 244.878V255.297V265.719L406.714 265.947L399.419 266.175L398.904 259.534C398.234 250.929 398.227 213.644 398.891 205.759L399.406 199.665L403.5 199.324C415.079 198.359 436.409 199.352 441.234 201.081ZM542.808 201.394C542.985 201.942 542.813 211.592 542.426 222.834C542.041 234.077 541.961 245.522 542.254 248.266L542.782 253.26L558.952 253.478L575.122 253.694L575.355 260.319L575.586 266.945L551.708 266.732L527.828 266.519L527.618 234.456C527.374 197.297 526.584 200.391 536.313 200.391C540.546 200.391 542.587 200.706 542.808 201.394ZM756.675 211.148C756.675 212.746 761.738 224.576 764.17 228.657C768.764 236.375 773.324 239.02 772.437 233.456C770.893 223.75 756.675 203.63 756.675 211.148ZM414.673 213.682C414.358 214.501 414.081 218.61 414.053 222.811L414.006 230.45L423.048 230.676C438.022 231.053 444.756 225.089 438.669 216.845C435.681 212.803 416.005 210.207 414.673 213.682ZM496.451 223.219C496.917 224.435 496.351 236.544 495.802 237.093C495.06 237.834 488.733 238.214 485.416 237.717C479.84 236.88 477.398 224.166 482.541 222.747C486.586 221.629 495.963 221.947 496.451 223.219ZM616.051 222.916C616.649 223.883 616.764 236.367 616.18 236.95C615.423 237.706 607.61 238.247 604.876 237.734C600.041 236.826 598.245 223.996 602.775 222.747C606.084 221.831 615.456 221.952 616.051 222.916ZM779.727 237.724C777.328 240.122 794.293 282.673 807.354 307.025C811.445 314.654 826.928 337.495 828.785 338.642C829.639 339.17 835.09 333.517 839.101 327.943C843.749 321.487 843.28 319.571 830.09 291.12C821.303 272.164 819.317 262.538 821.936 251.585C823.247 246.101 822.685 244.786 819.489 245.842C816.563 246.812 813.308 251.473 814.016 253.679C817.158 263.441 813.68 262.669 799.559 250.465C786.621 239.281 781.473 235.975 779.727 237.724ZM480.137 257.654V265.218L476.728 265.724C474.856 266.001 471.339 266.114 468.915 265.973L464.506 265.719L464.27 258.973C463.947 249.669 463.56 250.087 472.496 250.087H480.137V257.654ZM600.372 257.634V265.18L594.38 265.742C584.446 266.673 584.34 266.591 584.34 258.154C584.34 249.826 583.876 250.236 593.356 250.152L600.372 250.087V257.634ZM513.634 259.106L513.864 266.119H506.646C498.028 266.119 497.772 265.862 497.772 257.326V251.632L505.585 251.862L513.4 252.091L513.634 259.106ZM633.894 259.034C634.196 267.127 634.712 266.722 624.924 266.119L618.406 265.719L618.173 258.675L617.942 251.632L625.788 251.862L633.635 252.091L633.894 259.034ZM223.855 266.319C221.149 269.256 207.801 290.104 196.782 308.603C191.136 318.081 184.57 328.969 182.192 332.801L177.865 339.765L181.851 348.922C188.52 364.235 189.302 373.956 184.441 381.023C179.904 387.62 182.89 389.806 188.451 383.957C204.987 366.574 227.644 297.686 227.644 264.788C227.644 263.838 225.251 264.808 223.855 266.319ZM840.571 277.874C837.324 281.124 844.757 308.77 849.354 310.532C855.856 313.027 853.635 286.056 846.773 279.195C845.008 277.43 841.718 276.73 840.571 277.874ZM819.069 289.619C832.925 310.321 839.576 324.796 835.628 325.66C834.936 325.811 813.78 285.259 813.639 283.504C813.518 282.035 815.434 284.192 819.069 289.619ZM339.121 289.765C342.245 292.633 347.568 297.227 350.948 299.977C354.329 302.726 361.46 308.767 366.792 313.402C372.125 318.034 378.166 323.198 380.218 324.873C384.712 328.541 384.804 329.42 381.038 332.524C377.724 335.258 376.96 335.151 372.125 331.267L368.719 328.533L366.113 330.336C362.912 332.555 357.192 337.528 356.83 338.408C356.684 338.762 357.856 340.563 359.436 342.407C363.068 346.652 363.035 347.137 358.9 350.584C354.568 354.193 354.816 354.437 346.449 338.259C342.915 331.426 336.192 319.012 331.508 310.673C321.41 292.687 321.443 292.79 324.393 290.089C331.749 283.353 332.126 283.345 339.121 289.765ZM550.675 292.179C583.473 298.971 611.324 317.698 608.462 331.039C607.964 333.358 607.584 343.428 607.584 354.265C607.584 374.493 607.428 375.934 605.217 375.934C602.421 375.934 601.392 373.4 600.826 365.112C600.146 355.17 598.014 346.313 594.749 339.845C591.692 333.786 591.143 334.032 592.725 340.747C595.142 350.997 593.849 370.453 590.248 378.043C588.524 381.672 581.575 387.91 576.025 390.811C570.646 393.622 570.677 393.368 575.312 396.372C588.057 404.634 579.772 417.895 560.045 420.806C543.952 423.181 536.726 425.472 533.764 429.13C533.043 430.02 530.875 431.13 528.947 431.595C523.509 432.91 523.991 436.837 529.891 439.279C533.043 440.585 532.912 440.929 527.995 444.317C525.661 445.923 522.739 448.295 521.503 449.586L519.256 451.933L521.028 457.016C522.003 459.812 524.545 464.845 526.674 468.2C530.775 474.658 532.076 478.042 530.773 478.85C529.457 479.66 527.928 478.652 526.017 475.71C524.099 472.755 522.588 472.229 521.113 474.007C520.598 474.63 517.825 475.295 514.642 475.561C507.583 476.154 505.477 477.195 506.126 479.776C506.513 481.32 506.154 481.922 504.264 482.9C501.414 484.375 498.572 487.837 498.572 489.838C498.572 490.646 497.782 492.824 496.817 494.673C494.637 498.857 494.027 508.963 495.566 515.406L496.62 519.813L499.801 519.664C504.866 519.425 513 518.451 513 518.081C513 517.897 512.254 516.283 511.34 514.493C507.429 506.826 512.828 506.767 517.463 514.426C521.257 520.692 524.696 521.942 529.126 518.666C532.625 516.081 537.047 517.373 537.047 520.98C537.047 521.706 537.439 522.691 537.922 523.173C540.104 525.356 536.318 545.847 533.728 545.858C530.681 545.87 528.711 543.129 529.708 540.266C531.501 535.123 531.111 534.379 526.877 534.856C522.775 535.321 521.016 536.903 521.016 540.13C521.016 546.33 511.24 550.434 509.74 544.862C507.249 535.598 504.582 534.5 504.007 542.503C503.371 551.398 500.08 555.417 496.266 551.965C495.307 551.098 494.019 550.862 492.008 551.188C489.502 551.596 488.838 551.331 486.909 549.169C485.257 547.312 484.431 546.897 483.667 547.53C481.54 549.295 467.582 535.957 468.377 532.92C468.751 531.489 466.525 526.987 462.487 521C459.935 517.219 459.938 515.95 462.508 513.523C463.826 512.279 464.906 510.889 464.906 510.438C464.906 509.648 466.427 509.786 471.519 511.04C475.233 511.956 474.007 510.112 469.654 508.242L465.586 506.49L466.989 504.335C470.27 499.295 471.911 499.439 474.615 504.997C476.926 509.748 477.375 509.878 478.019 505.987C479.173 499 478.665 493.078 476.949 493.524C476.041 493.763 473.809 493.026 471.706 491.793C465.283 488.03 454.254 487.288 448.306 490.22C443.524 492.578 444.027 493.97 449.031 492.226C452.915 490.872 457.806 491.19 460.756 492.988C463.085 494.409 463.947 496.799 462 496.438C461.615 496.366 459.894 496.045 458.178 495.725C455.926 495.307 455.213 495.399 455.621 496.056C455.929 496.558 456.911 496.969 457.799 496.969C461.477 496.969 459.035 499.77 455.272 499.867C452.776 499.931 451.755 500.275 451.922 500.996C452.297 502.589 450.583 503.243 447.226 502.791C445.551 502.568 443.086 502.763 441.755 503.23C434.493 505.759 419.136 484.908 419.136 472.517C419.136 462.613 420.152 461.662 425.97 466.104C430.351 469.449 430.466 469.077 426.819 463.352C425.146 460.728 423.841 457.481 423.538 455.19C423.048 451.499 422.94 451.373 419.847 450.85C412.426 449.596 411.164 439.431 416.982 427.78C419.444 422.851 422.091 417.284 422.866 415.409C423.838 413.052 424.751 412.003 425.828 412.003C427.285 412.003 427.249 411.77 425.251 408.361C424.077 406.358 423.251 404.308 423.417 403.808C423.884 402.41 428.56 408.684 431.659 414.868C433.918 419.38 434.352 419.893 433.97 417.615C433.308 413.673 430.104 406.812 427.229 403.182C421.745 396.257 419.262 386.23 419.234 370.889C419.172 338.475 431.007 326.088 487.004 299.946C510.894 288.793 525.627 286.995 550.675 292.179ZM710.402 307.056C714.414 310.362 714.604 309.965 704.372 319.673C699.414 324.38 688.423 334.997 679.951 343.266C662.829 359.972 664.007 359.228 660.116 355.812C655.873 352.087 656.127 351.687 671.909 337.269C679.956 329.921 690.862 319.563 696.144 314.251C706.929 303.409 706.339 303.706 710.402 307.056ZM341.466 307.351C341.466 308.929 350.123 325.906 351.518 327.063C352.767 328.102 356.715 326.106 359.5 323.031C360.98 321.395 360.947 321.323 356.643 316.942C349.817 309.993 341.466 304.717 341.466 307.351ZM205.2 319.484C205.2 321.856 190.485 357.258 188.807 358.923C186.899 360.816 196.466 330.354 200.424 321.936C202.163 318.237 205.2 316.677 205.2 319.484ZM306.24 321.041C313.851 323.726 318.222 329.364 318.222 336.5C318.222 341.748 318.599 342.022 335.538 349.127C352.918 356.417 352.841 356.353 349.458 360.206C345.244 365.007 344.538 364.907 329.279 357.399L315.626 350.684L312.114 354.67C307.138 360.318 306.446 359.374 326.981 374.9C333.36 379.725 333.412 379.892 329.797 383.893C326.006 388.09 325.001 388.002 320.194 383.083C318.006 380.841 306.569 371.253 294.775 361.773C270.841 342.533 272.252 344.231 276.397 339.644C278.082 337.78 281.46 333.73 283.904 330.644C292.318 320.017 297.283 317.88 306.24 321.041ZM729.327 327.453C732.9 331.521 733.285 333.871 730.807 336.507C728.25 339.234 713.86 361.298 711.58 365.992C707.689 374 712.862 371.61 735.455 354.955C744.245 348.473 743.919 348.527 747.018 353.031C750.283 357.779 750.342 357.635 743.25 362.05C737.548 365.597 721.001 376.727 700.571 390.755L692.412 396.357L689.675 393.371C685.565 388.885 685.599 388.816 706.611 357.538C713.814 346.819 708.827 348.666 685.63 365.312C676.267 372.03 675.849 372.117 672.099 368.142C668.17 363.974 663.258 368.036 719.359 329.059C726.898 323.818 726.231 323.926 729.327 327.453ZM297.714 330.177C296.055 330.89 290.273 336.997 287.96 340.483C286.457 342.748 287.406 343.977 294.675 349.176C300.946 353.66 300.916 353.665 306.479 346.855C314.348 337.221 308.267 325.65 297.714 330.177ZM269.033 365.579C272.488 367.716 272.547 367.382 267.024 376.978C260.291 388.672 257.883 393.674 258.642 394.376C259.006 394.712 261.825 396.087 264.905 397.426C271.303 400.212 271.81 400.048 273.665 394.61C276.507 386.268 279.688 384.263 285.428 387.192C289.678 389.359 289.917 390.365 287.226 394.751C282.483 402.469 281.375 404.406 281.363 404.983C281.347 405.657 298.489 414.409 299.828 414.409C300.741 414.409 307.025 401.528 310.291 392.966C312.52 387.123 312.284 387.202 317.383 390.562C321.802 393.471 322.061 394.305 319.958 398.827C319.148 400.563 317.255 404.854 315.749 408.363C311.129 419.124 305.843 429.245 304.927 429.081C303.929 428.901 244.373 399.342 243.747 398.716C243.521 398.488 243.798 397.562 244.365 396.657C244.929 395.749 248.274 388.849 251.796 381.318C261.112 361.403 261.581 360.975 269.033 365.579ZM876.812 372.638C875.114 373.277 871.669 377.45 870.956 379.733C870.084 382.521 873.618 383.868 877.258 382.131C882.345 379.705 881.924 370.709 876.812 372.638ZM759.822 377.304C762.718 381.954 762.954 381.613 754.028 385.702C749.973 387.561 736.35 394.238 723.751 400.543C711.154 406.845 700.617 412.003 700.335 412.003C699.55 412.003 695.756 406.163 695.756 404.952C695.756 404.347 706.97 398.37 721.606 391.175C735.824 384.183 749.26 377.373 751.465 376.037C756.742 372.838 757.075 372.889 759.822 377.304ZM897.05 394.9C888.855 404.842 879.816 432.556 876.148 458.986C873.849 475.531 874.432 481.733 879.782 497.695C880.241 499.062 886.413 490.592 889.816 483.926C895.972 471.873 902.128 438.284 903.072 411.603C903.75 392.53 902.305 388.526 897.05 394.9ZM764.103 406.853C778.462 411.747 782.258 431.823 770.344 439.851C762.834 444.915 758.317 437.661 764.683 430.756C777.439 416.918 752.766 410.513 730.248 421.819C715.92 429.014 713.401 443.265 726.457 443.265C730.43 443.265 731.125 443.863 732.449 448.406C733.667 452.594 733.346 452.887 727.57 452.866C709.225 452.799 702.646 432.662 716.715 419.639C727.965 409.223 752.012 402.733 764.103 406.853ZM105.627 415.81C106.535 445.717 144.969 532.035 161.01 540.197C163.791 541.61 169.931 543.6 169.931 543.085C169.931 542.952 165.527 536.216 160.143 528.121C142.958 502.276 125.564 471.491 124.88 465.709C124.295 460.759 129.563 463.149 138.926 472.081C146.149 478.973 146.387 478.744 142.363 468.815C133.067 445.877 124.231 430.05 111.644 413.806C105.216 405.509 105.314 405.475 105.627 415.81ZM272.931 426.408C298.433 434.719 302.044 440.352 296.96 463.87C295.847 469.018 294.765 473.399 294.554 473.609C294.077 474.086 293.718 473.999 257.859 464.614C241.633 460.366 228.198 456.891 228 456.891C226.341 456.891 230.288 438.656 233.171 433.005C238.335 422.886 254.099 420.27 272.931 426.408ZM596.534 427.003C601.026 431.425 601.241 432.769 597.904 435.578C594.929 438.081 594.739 438.087 582.024 435.973C559.765 432.272 556.628 428.694 575.501 428.535L587.105 428.435L588.729 425.862C590.909 422.402 592.03 422.566 596.534 427.003ZM425.957 427.627C426.244 428.768 425.913 430.915 425.182 432.636C424.482 434.293 423.605 437.453 423.235 439.656C422.866 441.862 422.312 444.656 422.007 445.869C421.201 449.052 422.781 448.621 424.397 445.22C425.141 443.65 426.254 442.173 426.867 441.937C428.37 441.362 432.844 434.519 432.844 432.8C432.844 431.566 427.129 425.631 425.941 425.631C425.675 425.631 425.682 426.529 425.957 427.627ZM478.534 426.988C476.99 427.662 472.122 428.878 467.712 429.686C442.798 434.252 440.864 434.947 435.773 441.162C431.997 445.771 431.964 446.187 435.25 447.854L438.053 449.275L438.148 456.891C438.297 468.851 447.018 481.215 455.072 480.879C455.903 480.843 455.285 480.263 453.571 479.475C448.644 477.208 444.043 469.908 448.657 471.678C449.334 471.94 450.324 471.542 450.876 470.788C451.786 469.541 452.133 469.641 454.964 471.975C458.532 474.917 460.487 475.192 461.7 472.922C462.99 470.513 466.473 470.924 470.795 473.997L474.566 476.677L478.614 474.738C483.21 472.54 489.651 471.285 487.081 473.091C484.734 474.74 482.064 477.175 482.969 476.836C483.426 476.667 486.934 474.925 490.769 472.968L497.741 469.405L497.264 466.43C496.866 463.947 497.069 463.306 498.482 462.549C500.811 461.302 500.675 460.759 496.62 455.187C493.603 451.042 493.18 450.006 493.816 448.334C495.137 444.861 494.64 442.886 491.759 440.169C487.486 436.14 489.361 434.183 494.36 437.453C498.931 440.441 490.615 431.815 484.764 427.498C481.856 425.354 482.202 425.382 478.534 426.988ZM247.964 432.918C245.435 433.652 240.51 438.461 240.42 440.285C240.394 440.821 240.089 442.991 239.74 445.104C238.935 450.006 237.368 449.288 262.771 455.652C287.639 461.882 286.636 461.792 287.719 457.894C291.079 445.794 288.139 441.832 272.067 436.796C267.517 435.37 252.142 431.954 251.001 432.115C250.718 432.154 249.354 432.515 247.964 432.918ZM533.04 450.286C533.04 451.06 532.317 452.145 531.437 452.697C529.167 454.115 529.429 455.385 532.638 458.494C536.07 461.821 536.139 463.139 533.028 466.12C530.927 468.133 530.465 468.282 529.49 467.271C527.461 465.168 524.078 455.972 524.586 453.946C525.466 450.435 533.04 447.156 533.04 450.286ZM854.091 451.322C856.23 454.782 853.593 463.303 850.382 463.303C848.853 463.303 848.776 462.983 849.282 458.694C850.015 452.469 852.473 448.703 854.091 451.322ZM785.96 457.198C786.975 463.967 788.925 463.195 759.073 467.864C723.876 473.366 718.326 474.117 717.674 473.466C717.374 473.166 716.966 470.955 716.766 468.551C716.346 463.47 715.489 463.921 728.219 462.498C738.204 461.379 771.313 456.39 778.318 454.949C781.184 454.359 783.956 453.833 784.48 453.779C785.016 453.725 785.662 455.218 785.96 457.198ZM886.754 459.048C887.257 461.672 885.956 471.411 884.971 472.394C882.629 474.735 881.734 463.567 883.825 458.114C884.579 456.152 886.305 456.703 886.754 459.048ZM601.469 465.909C604.742 478.121 599.066 492.962 591.122 492.962C589.124 492.962 584.397 493.737 580.621 494.683C574.421 496.238 572.872 496.33 564.657 495.63L555.556 494.855L548.707 490.295C538.837 483.728 537.85 482.741 537.85 479.458C537.85 477.157 538.76 476.423 539.158 478.398C539.617 480.673 540.589 482.497 541.536 482.861C543.131 483.474 542.939 482.312 540.653 477.577C537.606 471.262 538.209 470.754 543.259 475.377C553.596 484.841 570.179 488.917 579.331 484.244C585.492 481.097 592.217 475.446 594.416 471.565C598.196 464.896 598.776 464.106 599.894 464.106C600.495 464.106 601.203 464.917 601.469 465.909ZM170.124 471.119C171.529 472.704 173.94 479.401 173.94 481.72C173.94 486.504 170.316 483.426 167.592 476.326C165.383 470.572 166.892 467.471 170.124 471.119ZM292.905 477.416C294.244 477.931 294.488 479.965 293.69 483.959C293.228 486.27 292.961 486.414 287.878 487.065L282.55 487.75L281.858 495.26C281.08 503.692 281.116 503.763 286.541 504.602C292.625 505.544 292.572 505.492 292.572 510.273C292.572 516.073 292.507 516.083 278.446 512.22C271.887 510.417 257.862 506.977 247.281 504.577C236.701 502.173 227.233 499.978 226.241 499.698C224.584 499.229 224.437 498.716 224.437 493.367C224.437 486.404 224.848 485.932 231.786 484.926C257.321 481.225 285.628 477.408 290.302 477.036C291.035 476.977 292.207 477.149 292.905 477.416ZM731.997 482.479C735.65 483.328 747.89 485.488 759.196 487.281C770.503 489.071 781.594 490.933 783.844 491.416L787.937 492.293V498.975C787.937 505.631 787.927 505.662 785.731 506.08C782.692 506.659 745.309 514.265 735.17 516.365C730.617 517.309 725.385 518.109 723.548 518.145L720.203 518.21L719.965 513.644L719.726 509.078L722.771 508.557C731.656 507.031 731.566 507.157 730.64 497.266L730.099 491.49L725.954 490.967C718.905 490.071 719.003 490.151 719.003 485.293V480.938H722.176C723.922 480.938 728.342 481.633 731.997 482.479ZM258.906 490.174C245.925 492.203 245.106 493.434 254.728 496.456C270.856 501.522 272.531 501.306 272.531 494.188V488.953L269.125 489.03C267.25 489.074 262.651 489.587 258.906 490.174ZM102.6 492.931C102.6 498.975 109.533 510.871 113.422 511.499C117.326 512.128 117.931 509.635 115.315 503.72C112.031 496.294 102.6 488.294 102.6 492.931ZM740.336 495.012C738.512 499.767 740.205 504.984 743.576 504.984C749.732 504.984 764.691 500.962 764.691 499.308C764.691 498.449 757.975 496.52 751.065 495.394C748.198 494.927 744.725 494.36 743.342 494.134C741.511 493.837 740.695 494.073 740.336 495.012ZM531.409 502.53C531.909 503.466 533.274 504.182 534.844 504.333C537.804 504.618 538.824 507.185 536.685 508.96C534.846 510.486 535.177 512.136 537.501 513.021C539.114 513.634 539.504 514.265 539.304 515.945C538.991 518.584 537.406 519.269 536.816 517.017C536.577 516.106 535.9 515.46 535.313 515.583C534.646 515.721 534.238 515.047 534.23 513.803C534.218 511.959 533.889 511.779 530.111 511.559C524.719 511.246 521.926 508.729 524.822 506.795C525.815 506.134 526.628 504.984 526.628 504.246C526.628 501.163 530.024 499.944 531.409 502.53ZM859.262 507.59C859.249 512.418 857.9 515.663 855.73 516.081C854.237 516.368 854.268 508.519 855.774 504.595C857.013 501.37 859.275 503.312 859.262 507.59ZM887.249 520.628C874.401 538.404 865.567 558.675 870.374 559.355C875.352 560.06 878.271 557.103 880.752 548.833C881.932 544.906 883.34 542.382 886.023 539.399C890.214 534.738 890.719 532.886 890.378 523.434L890.135 516.637L887.249 520.628ZM276.787 523.44C288.55 525.14 293.687 530.793 296.188 544.775C296.886 548.679 297.745 553.386 298.097 555.233C298.971 559.811 298.856 559.891 289.765 560.973C285.356 561.499 276.158 562.807 269.325 563.884C262.492 564.959 250.978 566.768 243.742 567.901C228.347 570.312 229.878 571.159 227.744 559.052C223.601 535.564 230.801 527.985 261.191 523.84C271.038 522.496 270.374 522.514 276.787 523.44ZM516.578 523.465C515.578 525.086 516.963 528.231 518.679 528.231C520.795 528.231 523.422 526.82 523.422 525.684C523.422 523.404 517.753 521.567 516.578 523.465ZM486.683 527.228C485.557 529.406 484.806 534.543 485.357 536.28C486.121 538.689 487.35 538.142 487.35 535.39C487.35 534.041 487.66 532.327 488.04 531.583C489.558 528.616 489.828 525.825 488.597 525.825C487.942 525.825 487.081 526.456 486.683 527.228ZM545.406 527.887C546.099 528.58 546.666 529.575 546.666 530.103C546.666 530.629 547.422 532.471 548.348 534.2C551.334 539.768 548.487 545.288 542.667 545.206C537.088 545.129 536.754 544.126 539.838 536.647C540.928 534.002 541.828 530.904 541.838 529.765C541.866 526.456 543.249 525.728 545.406 527.887ZM755.198 529.38C770.116 532.766 779.165 538.081 782.712 545.54C788.753 558.254 779.578 573.139 766.294 572.177L762.687 571.915L762.764 568.386C762.851 564.472 764.006 563.182 768.556 561.927C774.407 560.311 776.284 554.322 772.75 548.528C767.94 540.638 739.849 534.377 730.622 539.14C722.809 543.172 721.991 548.497 728.288 554.309L732.767 558.444L731.743 561.856C730.443 566.196 729.435 566.537 725.223 564.054C716.461 558.885 713.16 550.97 715.925 541.743C719.436 530.019 735.593 524.932 755.198 529.38ZM260.106 534.366C259.227 534.554 255.648 535.257 252.16 535.929C237.742 538.701 233.084 545.047 237.573 555.789C239.025 559.265 237.593 559.219 254.402 556.336C261.948 555.04 271.008 553.578 274.534 553.083C288.047 551.188 288.719 550.203 283.976 539.196C281.896 534.364 270.741 532.109 260.106 534.366ZM414.809 534.931C424.674 537.57 430.209 542.113 432.043 549.072C434.029 556.61 454.405 569.864 499.447 592.913L514.349 600.538L519.887 598.132C537.144 590.635 545.947 586.259 549.872 583.227C554.543 579.618 560.868 575.655 574.965 567.506C586.431 560.876 591.743 556.005 593.531 550.48C595.729 543.688 600.533 539.753 609.588 537.334C617.67 535.177 619.342 535.639 621.733 540.692C625.029 547.651 632.603 550.118 640.388 546.768C657.466 539.422 668.631 561.584 653.454 572.698C643.989 579.628 633.075 578.918 634.566 571.467C635.135 568.625 634.773 568.578 625.619 570.353C621.512 571.149 617.552 571.408 614.597 571.074C610.047 570.561 607.795 572.103 611.191 573.408C614.915 574.837 606.951 582.986 602.224 582.581C598.507 582.265 596.878 580.044 599.176 578.428C601.49 576.804 604.917 573.739 603.978 574.132C600.292 575.676 568.299 591.674 563.9 594.172C550.639 601.703 534.628 611.894 535.21 612.435C535.559 612.755 538.55 614.192 541.856 615.623C545.163 617.057 551.193 619.781 555.258 621.679C569.992 628.553 583.363 632.419 592.453 632.426C599.543 632.434 604.291 634.063 613.197 639.537C620.604 644.092 620.627 644.359 614.494 654.429C611.25 659.754 610.914 662.604 612.804 668.831C615.351 677.232 612.196 675.888 604.981 665.502C603.988 664.073 602.883 662.901 602.524 662.899C601.351 662.888 605.302 669.055 609.695 674.095C614.477 679.576 614.348 679.238 613.084 683.011C611.021 689.169 605.943 691.347 594.026 691.185C581.047 691.006 576.694 687.582 571.402 673.374C567.101 661.834 555.564 651.759 524.396 632.321C511.918 624.542 514.072 624.347 497.582 634.75C459.43 658.823 452.053 665.202 446.851 678.625C441.626 692.114 435.042 696.523 421.663 695.5C405.103 694.235 400.568 687.148 409.674 676.765C411.921 674.205 414.314 671.027 414.994 669.706L416.23 667.3L414.419 668.903C413.424 669.786 410.944 672.666 408.907 675.306C404.693 680.769 404.008 680.161 405.947 672.676C407.745 665.746 407.573 664.663 403.693 658.428C397.462 648.417 397.634 647.516 406.601 643.071C416.176 638.323 420.296 637.095 428.837 636.441C433.346 636.094 439.064 635.012 442.863 633.786C453.946 630.205 492.159 613.115 492.159 611.737C492.159 609.752 476.154 600.874 454.218 590.689C446.354 587.039 437.34 582.46 434.183 580.516C429.727 577.769 428.175 577.171 427.239 577.843C421.476 581.97 419.698 581.593 415.14 575.294C411.967 570.907 410.359 570.133 400.545 568.263C390.457 566.339 391.162 566.303 391.162 568.771C391.162 577.702 376.85 576.845 368.321 567.406C356.73 554.576 371.04 537.311 386.689 545.245C389.418 546.627 390.265 546.714 393.102 545.909C399.294 544.152 400.545 543.357 402.382 540.007C406.032 533.353 407.171 532.889 414.809 534.931ZM832.458 543.5C844.167 557.516 838.065 565.105 824.406 553.514L821.2 550.793L823.006 547.327C823.999 545.419 824.812 542.567 824.809 540.987C824.806 535.975 826.684 536.59 832.458 543.5ZM495.966 538.45C494.314 538.824 494.06 541.056 495.668 541.056C496.997 541.056 498.916 538.93 498.01 538.463C497.659 538.281 496.738 538.273 495.966 538.45ZM301.97 569.038C304.017 574.722 305.014 573.501 290.566 582.989C284.836 586.754 279.139 590.671 277.907 591.697L275.671 593.556L278.102 598.566C279.441 601.323 280.852 603.578 281.242 603.578C282.619 603.578 288.719 601.177 298.481 596.793C310.55 591.374 309.857 591.371 312.294 596.881C314.595 602.085 314.69 601.931 307.8 604.332C302.09 606.322 270.397 618.622 257.775 623.744C248.638 627.453 249.662 627.912 245.883 618.406C238.178 599.025 238.045 594.244 245.011 587.277C251.065 581.224 258.47 579.716 265.762 583.053L270.397 585.177L273.267 583.261C274.847 582.209 281.188 577.517 287.359 572.839C300.556 562.833 299.807 563.028 301.97 569.038ZM719.231 571.977C733.731 577.605 757.214 586.159 765.334 588.77C775.856 592.156 776.228 592.451 774.671 596.18C772.45 601.498 772.835 601.472 760.415 597.065C719.559 582.563 710.431 579.336 709.181 578.962C707.54 578.469 707.463 577.492 708.676 572.67C709.764 568.35 709.877 568.345 719.231 571.977ZM867.545 575.581C863.23 577.187 862.94 591.553 867.221 591.553C868.866 591.553 880.116 583.137 880.116 581.909C880.116 579.908 869.83 574.732 867.545 575.581ZM893.887 578.477C886.7 581.019 882.583 586.805 885.728 589.95C889.124 593.346 893.546 591.189 898.245 583.843C902.588 577.056 901.541 575.768 893.887 578.477ZM846.863 586.944C842.646 591.286 830.221 608.287 829.067 611.293C828.846 611.868 829.78 613.992 831.145 616.013C832.509 618.034 833.625 619.861 833.625 620.073C833.625 621.6 842.79 638.862 843.48 638.634C846.85 637.51 855.268 606.764 855.268 595.573C855.268 580.026 854.425 579.159 846.863 586.944ZM255.233 591.528C251.711 592.951 249.087 597.196 249.628 600.585C250.093 603.483 254.397 613.997 255.123 613.997C258.031 613.997 270.926 607.936 270.933 606.566C270.941 604.681 265.878 592.748 264.646 591.753C263.256 590.63 257.777 590.499 255.233 591.528ZM720.506 595.929C755.287 607.759 769.297 629.951 750.365 643.233C738.289 651.702 698.491 632.508 694.066 616.08C689.939 600.749 703.744 590.227 720.506 595.929ZM872.816 599.274C870.281 602.326 873.577 617.952 878.046 624.059C879.631 626.229 879.885 625.706 881.016 617.878C882.837 605.271 877.633 593.467 872.816 599.274ZM706.773 604.399C705.101 605.427 702.169 610.909 702.169 613.007C702.169 619.45 726.423 635.179 737.904 636.182C747.546 637.023 752.394 628.725 746.307 621.792C737.417 611.668 712.662 600.777 706.773 604.399ZM319.258 612.594C323.862 618.842 339.062 640.496 339.062 640.806C339.062 641.409 288.293 675.693 283.999 677.989C281.896 679.115 280.585 677.637 269.561 661.69C258.221 645.287 259.08 647.203 261.794 644.349C268.196 637.615 268.697 637.869 277.058 652.072C279.913 656.92 283.043 661.698 284.015 662.686L285.782 664.484L291.163 660.682C297.578 656.15 297.537 656.391 292.895 650.415C286.721 642.463 286.798 641.553 293.998 637.102C297.337 635.04 298.138 635.645 302.629 643.63C304.371 646.729 306.264 649.263 306.833 649.263C307.685 649.266 320.93 640.845 323.318 638.785C323.967 638.223 315.613 625.668 309.616 618.193C306.305 614.066 306.448 613.389 311.042 611.527C316.044 609.498 317.075 609.631 319.258 612.594ZM825.915 626.622C826.186 627.835 826.617 632.793 826.874 637.644C827.484 649.119 827.661 649.489 830.142 644.51L832.23 640.319L829.675 632.367C827.366 625.183 824.676 621.069 825.915 626.622ZM690.485 630.218C693.163 632.526 700.181 638.749 706.08 644.043C711.977 649.34 720.816 657.125 725.718 661.344C737.838 671.771 737.335 670.93 733.787 674.857C729.866 679.199 728.834 679.125 712.696 673.354C693.532 666.497 687.741 665.197 687.741 667.749C687.741 668.124 694.233 674.082 702.169 680.995C718.085 694.853 717.633 694.21 714.034 697.921C710.685 701.379 710.295 701.312 704.818 696.339C702.258 694.012 695.836 688.341 690.547 683.737C685.255 679.133 677.501 672.279 673.312 668.511C669.124 664.74 664.166 660.431 662.291 658.933C658.146 655.622 658.043 654.18 661.719 650.951C665.443 647.68 664.509 647.534 686.081 654.801C712.388 663.663 712.893 662.97 692.542 645.972C676.919 632.921 677.119 633.204 680.566 629.025C683.798 625.111 684.678 625.216 690.485 630.218ZM816.309 632.834C804.443 649.771 789.535 684.681 789.543 695.51C789.558 714.227 797.235 714.155 809.978 695.318C819.587 681.118 825.638 677.319 820.492 688.718C816.652 697.229 817.365 699.363 822.808 695.649C826.22 693.32 827.21 690.66 827.218 683.814C827.22 680.589 827.71 677.586 828.472 676.124C829.672 673.826 829.642 673.661 827.743 672.117C823.032 668.285 820.667 662.404 820.346 653.706C820.182 649.281 819.587 642.232 819.022 638.044L817.994 630.428L816.309 632.834ZM828.408 657.281C829.208 668.801 829.937 669.339 833.746 661.236C837.152 653.988 837.149 653.911 833.443 652.444C831.999 651.874 830.144 650.835 829.321 650.135C827.867 648.901 827.841 649.114 828.408 657.281ZM355.414 656.961C358.81 660.359 358.928 661.216 356.402 664.232C353.547 667.644 346.065 679.068 334.699 697.359C318.924 722.753 320.104 721.455 316.367 717.556C312.827 713.86 314.364 710.597 332.419 683.496C335.297 679.176 337.472 675.465 337.254 675.247C336.823 674.816 328.51 679.82 321.428 684.773C299.046 700.422 299.351 700.291 295.137 696.079L292.254 693.196L294.216 691.678C295.296 690.842 298.522 688.731 301.387 686.984C304.253 685.237 316.336 677.152 328.24 669.016C352.308 652.562 351.413 652.959 355.414 656.961ZM199.149 662.524C203.258 666.959 207.97 681.328 205.313 681.328C204.059 681.328 201.045 676.26 198.641 670.106C194.902 660.534 195.063 658.117 199.149 662.524ZM575.635 668.167C576.797 669.455 579.4 673.107 581.416 676.283C583.548 679.638 586.09 682.58 587.477 683.298C590.283 684.747 592.777 684.937 590.209 683.503C589.247 682.97 586.259 679.569 583.566 675.952C580.872 672.333 577.51 668.575 576.094 667.598L573.519 665.825L575.635 668.167ZM520.451 671.568C555.448 688.8 549.785 746.964 509.27 786.401C490.074 805.087 483.626 806.621 477.093 794.055C473.968 788.053 473.968 788.055 483.349 783.123C499.005 774.892 513.605 759.181 511.902 752.399C511.276 749.906 509.412 749.088 498.031 746.315C473.738 740.398 462.518 723.707 466.499 699.404C470.341 675.934 499.139 661.075 520.451 671.568ZM436.189 678.743C433.58 682.169 430.227 685.94 428.737 687.12C426.852 688.618 426.436 689.28 427.37 689.305C430.099 689.382 435.434 684.18 438.635 678.322C442.701 670.881 442.093 670.984 436.189 678.743ZM906.24 686.958C897.983 693.781 888.639 697.788 869.794 702.582C848.589 707.973 835.043 715.004 817.232 729.85C806.462 738.83 802.719 740.09 805.502 733.795C809.452 724.866 807.457 724.597 786.334 731.217C758.052 740.082 719.398 769.467 702.638 794.842C691.596 811.561 697.311 816.717 718.2 808.875C741.49 800.134 753.574 791.985 774.309 771.042C794.288 750.863 798.595 748.018 795.535 757.016C793.752 762.262 794.26 763.193 799.775 764.783C809.383 767.556 818.512 765.712 821.067 760.482C822.865 756.801 823.532 756.729 824.783 760.081C825.317 761.515 826.056 763.452 826.42 764.388C827.313 766.673 832.991 769.228 838.634 769.882C843.264 770.418 844.303 771.231 842.007 772.516C832.25 777.977 823.314 793.411 825.561 800.916C826.915 805.436 825.612 806.641 822.549 803.707C816.357 797.774 808.034 799.359 762.687 815.111C737.001 824.035 737.535 823.714 735.042 831.786C731.687 842.644 733.169 844.996 747.608 851.734C762.985 858.911 763.831 859.334 764.319 860.124C765.978 862.807 794.262 841.612 815.203 821.993C862.225 777.941 877.699 756.688 903.365 700.914C911.565 683.093 911.698 682.449 906.24 686.958ZM499.636 688.538C484.854 690.731 477.667 712.111 488.102 722.861C498.259 733.328 515.883 731.889 522.429 720.055C531.881 702.969 519.333 685.617 499.636 688.538ZM774.984 696.613C772.616 697.937 769.826 715.345 771.085 720.927C772.052 725.215 772.986 725.941 775.453 724.323C782.135 719.944 781.676 692.868 774.984 696.613ZM744.609 727.701C735.957 733.254 729.504 741.816 724.725 754.079C721.127 763.316 721.191 763.524 726.216 758.984C746.533 740.631 754.256 730.815 751.06 727.416C748.736 724.941 748.924 724.933 744.609 727.701ZM282.312 756.837C280.903 758.242 281.124 759.397 283.153 761.254C288.798 766.43 299.364 768.23 300.882 764.275C302.239 760.741 285.223 753.923 282.312 756.837ZM793.573 773.932C776.192 778.834 758.093 794.314 763.752 799.434C765.986 801.457 767.081 801.106 772.568 796.612C778.029 792.141 780.596 791.982 785.018 795.85C786.414 797.069 786.598 797.025 787.824 795.199C792.38 788.42 801.006 782.723 816.332 776.377C821.177 774.371 819.035 773.535 807.926 773.094C800.385 772.791 796.887 772.996 793.573 773.932ZM667.585 786.934C669.368 790.312 666.133 799.462 663.689 797.951C662.781 797.392 663.217 787.783 664.222 786.132C664.889 785.044 666.831 785.506 667.585 786.934ZM328.374 788.471C326.781 790.064 328.635 792.783 336.81 800.842C349.332 813.187 350.551 813.641 346.526 804.469C341.032 791.946 332.457 784.387 328.374 788.471ZM717.236 796.666C717.831 798.449 703.041 811.181 700.376 811.181C698.55 811.181 700.468 808.45 706.378 802.637C714.045 795.099 716.299 793.857 717.236 796.666ZM642.969 803.558C640.211 806.698 640.242 806.61 639.978 812.384C639.878 814.588 639.478 818.202 639.088 820.413C637.685 828.374 639.801 830.801 643.587 825.579C651.628 814.475 651.064 794.337 642.969 803.558ZM281.25 818.897C296.34 826.515 295.565 827.389 278.544 821.957C268.886 818.876 265.578 816.955 266.37 814.89C267.252 812.592 270.49 813.464 281.25 818.897ZM201.994 825.863C201.994 826.943 215.824 840.02 227.244 849.738C247.82 867.252 268.979 881.921 290.968 893.913C303.616 900.81 305.602 901.759 307.402 901.759C310.403 901.759 310.493 900.366 307.579 898.984C301.893 896.285 296.768 890.83 298.581 889.404C301.436 887.159 304.001 887.026 315.415 888.537C331.067 890.604 333.894 890.006 340.288 883.276L342.669 880.77L339.529 878.038C334.82 873.942 331.962 873.406 323.623 875.06C314.389 876.894 310.67 875.85 308.77 870.897C308.095 869.135 307.438 867.56 307.313 867.401C307.187 867.242 305.379 867.691 303.293 868.404C290.915 872.621 250.213 860.34 241.305 849.7C237.273 844.88 231.358 840.879 223.101 837.38C217.553 835.028 211.158 831.476 204.197 826.882C202.986 826.079 201.994 825.622 201.994 825.863ZM706.363 828.387C688.987 834.697 686.997 838.419 699.047 842.066C709.251 845.157 716.343 842.559 717.923 835.154C720.234 824.324 719.206 823.724 706.363 828.387ZM419.529 846.373C413.173 850.249 411.741 855.63 416.412 858.093L419.619 859.783V890.54V921.294L417.107 921.946C414.283 922.677 413.634 924.167 413.616 929.966C413.604 934.771 412.873 934.545 426.431 933.94L438.053 933.419L438.31 930.29C438.689 925.644 437.902 923.569 435.237 922.192L432.844 920.953V883.386C432.844 841.069 433.498 844.844 426.164 844.849C423.512 844.852 421.127 845.401 419.529 846.373ZM466.858 846.312C457.776 850.577 453.284 857.518 453.284 867.291V874.103L457.08 879.59L460.877 885.079L456.955 889.611C444.196 904.363 447.441 923.872 464.006 932.008C489.228 944.395 513.5 910.906 494.075 890.519L489.859 886.092L493.37 880.636C501.947 867.309 498.577 853.945 484.836 846.783C480.725 844.639 470.965 844.383 466.858 846.312ZM511.397 866.767C511.397 886.084 511.551 888.821 512.664 889.247C515.098 890.181 526.674 889.75 528.87 888.644C540.674 882.701 550.364 889.601 551.257 904.581C552.262 921.428 537.044 928.645 525.686 916.711L521.077 911.865L516.724 913.237C510.738 915.125 509.984 916.208 512.177 919.758C526.392 942.755 558.365 937.238 562.05 911.15C565.303 888.124 555.759 876.166 534.095 876.125C522.552 876.104 522.932 876.481 523.811 865.939C524.517 857.467 524.078 857.672 541.507 857.672H554.681L554.668 852.662C554.65 844.788 556.097 845.28 532.268 845.008L511.397 844.77V866.767ZM572.039 853.34C571.259 866.088 571.402 885.33 572.295 887.677C573.244 890.173 581.939 890.627 588.821 888.542C603.291 884.15 610.783 889.232 612.004 904.26C612.986 916.331 608.952 921.192 597.55 921.674L590.997 921.951L586.695 917.008C581.978 911.583 581.124 911.391 574.339 914.225C570.918 915.654 570.838 916.616 573.796 920.699C591.835 945.603 623.215 935.356 623.215 904.563C623.215 885.005 615.277 876.838 595.562 876.109L584.74 875.706L585.025 867.291C585.377 856.964 583.463 858.144 600.636 857.672L615.2 857.272L615.433 852.863C615.849 845.039 616.559 845.288 592.946 844.998L572.564 844.749L572.039 853.34ZM480.884 859.157C481.953 859.932 483.526 861.907 484.375 863.543C489.941 874.267 472.927 883.022 466.484 872.749C460.846 863.764 472.306 852.942 480.884 859.157ZM706.983 859.75C702.838 861.548 700.371 864.087 701.476 865.418C704.054 868.524 716.097 863.307 714.709 859.685C714.117 858.144 710.623 858.172 706.983 859.75ZM361.506 895.262C358.197 896.496 353.69 898.414 351.485 899.528C342.369 904.132 337.323 905.245 328.004 904.714L319.422 904.224L323.031 907.456C330.777 914.397 331.311 914.666 339.637 915.846C348.637 917.121 362.817 917.3 367.516 916.197C369.28 915.785 376.801 915.195 384.229 914.889L397.734 914.33L397.211 909.046C396.046 897.329 395.805 896.996 386.53 894.426C378.332 892.151 369.006 892.464 361.506 895.262ZM482.028 896.157C493.981 903.737 489.107 921.735 475.087 921.784C463.701 921.823 456.942 908.892 463.875 900.328C469.085 893.89 475.961 892.31 482.028 896.157ZM716.44 898.812C716.817 904.596 710.079 908.972 700.794 908.972C690.875 908.972 696.518 901.641 710.585 896.252C715.82 894.246 716.153 894.392 716.44 898.812Z" fill="#FFFEFE"/>
</svg>
