<?xml version="1.0" standalone="no"?>
<!DOCTYPE svg PUBLIC "-//W3C//DTD SVG 1.1//EN" "http://www.w3.org/Graphics/SVG/1.1/DTD/svg11.dtd">
<svg xmlns="http://www.w3.org/2000/svg" xmlns:xlink="http://www.w3.org/1999/xlink" id="svg" width="400" height="400" viewBox="0, 0, 400,400" version="1.1"><g id="svgg"><path id="path0" d="M173.750 9.386 C 89.026 19.943,20.960 88.339,10.490 173.438 C 1.032 250.304,38.906 324.724,106.637 362.361 C 192.202 409.907,302.198 382.813,355.362 301.094 C 359.995 293.973,361.500 291.375,366.336 282.152 C 387.842 241.133,392.447 189.375,378.731 142.813 C 358.204 73.127,295.973 19.250,225.141 9.842 C 220.724 9.255,177.853 8.875,173.750 9.386 M188.350 21.328 L 188.251 23.906 184.985 24.121 C 171.955 24.979,160.834 27.212,149.370 31.274 C 146.880 32.156,142.172 33.787,138.906 34.899 C 132.529 37.071,131.570 37.530,124.790 41.651 C 122.355 43.132,119.191 44.931,117.759 45.650 C 103.365 52.877,80.406 72.631,67.121 89.219 C 44.928 116.928,36.794 133.360,29.222 165.781 C 27.757 172.055,27.705 171.670,30.391 174.409 C 31.651 175.694,33.112 177.579,33.683 178.658 C 35.462 182.018,37.401 183.628,41.849 185.434 C 44.405 186.472,44.350 186.713,42.706 181.667 C 37.892 166.890,36.498 158.704,37.688 152.200 C 38.402 148.294,38.378 148.306,40.678 150.682 C 43.775 153.881,46.684 155.031,49.959 154.351 C 53.805 153.553,54.601 151.169,53.612 143.409 C 51.704 128.446,61.563 97.678,67.133 101.210 C 67.774 101.616,68.158 105.583,68.105 111.250 C 68.002 122.232,68.776 126.870,70.411 125.063 C 73.336 121.832,75.019 113.567,73.602 109.399 C 72.780 106.982,72.901 106.094,74.197 105.018 C 75.196 104.189,75.658 101.534,75.943 95.000 C 76.564 80.712,80.295 74.123,90.729 68.886 C 95.271 66.607,95.132 66.463,93.391 71.641 C 91.715 76.624,91.539 78.238,92.534 79.503 C 93.403 80.608,93.838 80.336,97.986 76.093 C 101.943 72.043,104.366 70.597,105.128 71.829 C 105.373 72.226,102.135 76.816,99.415 79.925 C 90.825 89.748,85.907 97.188,88.004 97.188 C 88.658 97.188,90.036 95.598,92.956 91.475 C 100.220 81.221,103.362 81.141,96.790 91.377 C 94.358 95.165,92.368 99.206,92.617 99.854 C 93.653 102.554,96.511 100.687,98.426 96.058 C 99.796 92.748,101.036 91.300,103.642 89.967 C 106.143 88.688,106.299 88.293,105.253 85.883 C 103.358 81.514,105.962 76.163,112.813 70.347 C 113.930 69.399,114.844 68.476,114.844 68.296 C 114.844 67.901,112.285 67.029,110.234 66.724 C 109.418 66.603,108.750 66.379,108.750 66.227 C 108.750 65.925,109.008 65.864,112.472 65.337 C 115.936 64.810,117.410 63.858,120.217 60.335 C 126.604 52.319,134.671 46.239,142.818 43.301 C 148.759 41.158,149.690 43.781,145.186 49.973 C 142.737 53.340,142.673 54.108,144.799 54.644 C 146.633 55.105,146.647 55.146,145.817 57.523 C 143.842 63.175,138.469 69.343,128.656 77.222 C 122.599 82.085,122.429 82.324,125.759 81.281 C 128.115 80.543,133.923 78.886,135.078 78.622 C 136.802 78.228,135.766 79.451,132.785 81.328 C 131.825 81.932,129.863 83.299,128.426 84.365 C 126.235 85.989,125.658 86.278,124.859 86.148 C 123.736 85.966,120.313 87.095,120.313 87.648 C 120.313 87.855,120.664 88.185,121.094 88.381 C 122.598 89.066,122.146 89.578,116.563 93.512 C 115.445 94.299,113.904 95.588,113.138 96.378 C 111.505 98.059,111.158 98.111,109.515 96.914 C 107.773 95.646,107.188 95.535,106.015 96.249 C 104.591 97.115,104.699 97.319,107.355 98.776 L 109.709 100.069 108.851 101.206 C 108.379 101.832,107.003 103.558,105.793 105.041 C 104.584 106.525,103.037 108.455,102.357 109.330 C 100.863 111.250,100.713 111.318,99.178 110.771 C 95.595 109.494,90.928 111.478,93.612 113.137 C 94.654 113.780,94.890 113.811,96.307 113.484 C 99.245 112.805,99.207 112.926,95.043 117.467 C 90.828 122.064,90.272 122.871,87.480 128.462 C 86.242 130.941,84.267 134.671,83.091 136.751 C 81.915 138.831,80.472 141.643,79.883 143.001 C 79.295 144.358,78.329 146.523,77.737 147.813 C 76.361 150.807,74.697 156.113,72.542 164.375 C 72.206 165.664,71.677 168.512,71.366 170.703 C 70.661 175.689,70.587 175.671,69.530 170.234 C 68.730 166.117,67.600 162.334,65.027 155.156 C 60.724 143.153,59.067 125.350,62.419 127.144 C 63.220 127.573,63.437 129.186,63.438 134.706 C 63.438 139.441,63.539 140.000,64.402 140.000 C 65.605 140.000,65.599 130.553,64.390 121.659 C 63.468 114.877,63.036 114.427,61.309 118.456 C 56.744 129.106,55.209 141.783,57.538 149.585 C 58.958 154.341,59.098 155.428,59.378 163.906 C 59.647 172.047,59.776 173.468,60.747 178.906 C 61.693 184.201,64.666 194.426,66.270 197.899 C 66.837 199.128,67.345 198.782,67.234 197.242 C 67.127 195.766,67.402 195.631,69.561 196.096 C 70.179 196.230,70.226 196.502,70.423 201.061 C 71.338 222.286,78.408 244.363,89.347 260.156 C 91.013 262.563,92.495 264.726,92.639 264.964 C 92.783 265.202,92.876 266.397,92.845 267.620 C 92.650 275.296,95.623 284.375,98.330 284.375 C 99.730 284.375,102.126 281.297,102.648 278.828 C 102.921 277.534,103.050 277.549,104.800 279.089 C 106.553 280.633,106.552 280.618,105.033 282.444 C 103.779 283.951,102.638 286.022,101.572 288.726 L 100.960 290.277 102.322 293.186 C 103.071 294.785,104.669 298.273,105.873 300.938 C 107.077 303.602,109.207 308.295,110.606 311.367 C 113.458 317.628,113.460 317.641,111.321 316.198 C 110.472 315.625,108.471 314.274,106.874 313.195 C 101.782 309.756,90.113 304.660,83.125 302.823 C 78.864 301.704,77.892 301.662,76.197 302.527 C 74.216 303.538,66.052 300.665,67.629 299.513 C 69.771 297.946,76.204 297.496,81.046 298.573 C 83.285 299.071,84.373 299.039,83.561 298.499 C 81.611 297.201,79.051 294.798,77.830 293.119 C 75.450 289.848,72.737 288.001,64.531 284.066 C 57.361 280.628,51.358 276.581,43.731 270.041 C 41.937 268.503,40.428 267.284,40.378 267.332 C 40.215 267.491,45.951 279.063,47.720 282.145 C 51.192 288.190,55.377 293.939,66.048 307.317 C 67.448 309.072,69.006 311.027,69.509 311.661 C 70.619 313.057,71.005 313.100,71.467 311.876 C 71.953 310.588,72.619 310.424,74.825 311.050 C 78.573 312.112,79.289 312.228,80.356 311.943 C 81.655 311.597,81.698 310.551,80.488 308.723 C 79.224 306.813,79.994 307.035,83.788 309.674 C 98.210 319.705,107.652 325.135,117.686 329.168 C 127.145 332.969,129.385 330.641,120.625 326.111 C 117.014 324.244,115.313 322.652,115.313 321.142 C 115.313 319.003,118.307 320.299,123.592 324.727 C 134.668 334.007,142.045 334.353,135.620 325.291 C 128.863 315.760,121.683 308.198,115.016 303.590 C 106.517 297.715,103.615 294.085,107.403 294.067 C 108.793 294.061,108.923 293.623,107.926 292.315 C 106.643 290.634,106.604 284.341,107.871 283.557 C 108.562 283.131,110.938 286.126,110.938 287.424 C 110.937 288.674,110.950 288.687,113.359 289.947 C 116.091 291.376,119.968 294.369,123.425 297.720 C 124.707 298.962,126.184 300.135,126.706 300.325 C 132.804 302.548,133.713 303.804,140.317 319.141 C 141.927 322.879,143.383 325.938,143.552 325.938 C 143.722 325.938,144.591 325.434,145.484 324.819 C 148.620 322.659,150.346 323.038,153.406 326.555 L 155.043 328.438 156.396 327.507 C 157.968 326.425,158.644 324.849,158.951 321.540 L 159.144 319.466 158.087 318.658 C 151.896 313.922,149.320 312.197,147.288 311.432 C 146.055 310.968,144.862 310.367,144.638 310.097 C 144.414 309.827,143.279 308.978,142.115 308.212 C 138.594 305.893,139.891 305.464,144.353 307.473 C 147.510 308.895,149.752 309.374,153.261 309.377 C 157.416 309.381,162.690 311.005,172.500 315.301 C 174.133 316.016,176.453 316.936,177.656 317.345 C 195.178 323.302,201.000 323.506,207.344 318.388 C 212.602 314.145,214.889 312.964,218.786 312.480 C 221.834 312.101,222.915 311.875,231.719 309.775 C 241.621 307.413,243.796 307.051,245.141 307.537 C 246.525 308.038,247.129 307.841,252.614 305.101 C 257.247 302.786,256.997 302.770,256.578 305.352 C 255.610 311.315,256.291 317.500,257.914 317.500 C 259.411 317.500,264.287 308.884,268.141 299.429 L 269.839 295.263 274.138 292.018 C 278.502 288.724,278.779 288.640,277.998 290.854 C 277.394 292.566,277.254 294.441,277.718 294.600 C 278.202 294.766,279.040 293.069,280.296 289.375 C 281.407 286.110,281.934 285.417,285.907 281.993 C 287.396 280.710,288.495 280.000,288.990 280.000 C 290.762 280.000,292.197 278.738,293.431 276.094 C 294.072 274.719,295.794 271.971,297.257 269.988 C 300.770 265.225,304.157 259.569,307.720 252.514 C 309.779 248.438,310.998 246.395,311.879 245.549 C 313.094 244.382,313.125 244.299,313.125 242.213 C 313.125 240.566,313.369 239.401,314.184 237.147 C 314.767 235.536,315.692 232.672,316.239 230.781 C 316.787 228.891,317.308 227.133,317.397 226.875 C 317.497 226.588,317.923 227.194,318.495 228.438 C 321.044 233.972,322.235 233.474,327.121 224.836 C 328.956 221.592,329.598 220.906,331.645 220.001 C 332.898 219.446,333.125 219.212,333.125 218.478 C 333.125 215.312,327.290 204.308,323.970 201.213 L 322.421 199.770 322.820 198.213 C 323.127 197.015,323.136 196.419,322.859 195.625 C 322.132 193.538,322.328 193.041,323.781 193.287 C 324.932 193.481,325.046 193.444,324.894 192.923 C 324.801 192.605,324.576 191.768,324.395 191.064 C 324.213 190.360,323.649 189.210,323.141 188.509 C 321.889 186.781,321.632 185.585,321.989 183.145 C 322.366 180.566,321.817 174.711,320.938 171.925 C 320.139 169.394,320.137 168.965,320.926 169.215 C 322.811 169.813,323.023 168.576,321.435 166.250 C 319.314 163.143,318.393 160.897,318.603 159.337 C 318.729 158.401,318.625 157.309,318.307 156.238 C 317.827 154.623,317.834 154.547,318.595 152.937 C 319.770 150.454,319.662 149.919,317.692 148.464 C 315.820 147.081,313.740 143.438,314.822 143.438 C 315.113 143.438,323.292 147.942,323.466 148.198 C 323.567 148.347,323.824 150.748,324.036 153.532 C 325.936 178.466,328.588 194.890,331.968 202.656 C 332.566 204.031,333.159 205.508,333.285 205.938 C 333.779 207.622,334.114 207.610,335.068 205.872 C 339.539 197.734,338.223 178.742,331.890 160.000 C 329.386 152.587,328.026 147.411,327.995 145.170 L 327.969 143.309 326.693 142.939 C 325.991 142.736,323.955 142.431,322.169 142.260 C 317.348 141.800,315.153 139.153,318.359 137.664 C 319.090 137.325,319.688 136.947,319.688 136.825 C 319.688 136.459,314.717 133.286,312.031 131.937 C 309.310 130.570,308.526 129.837,304.813 125.193 C 300.427 119.707,299.668 118.678,298.040 116.014 C 297.160 114.573,295.747 112.603,294.901 111.637 C 294.056 110.670,292.861 109.098,292.246 108.143 C 291.631 107.188,290.686 105.914,290.145 105.313 C 289.241 104.307,287.188 101.149,287.188 100.763 C 287.188 100.507,291.032 98.751,291.594 98.750 C 295.464 98.748,294.316 94.966,290.163 94.037 C 287.976 93.547,286.089 92.443,283.027 89.863 C 279.183 86.623,276.565 85.630,271.830 85.618 C 268.590 85.610,264.866 84.581,262.106 82.931 C 261.034 82.290,259.828 81.568,259.427 81.327 C 258.729 80.908,258.721 80.862,259.241 80.288 C 259.924 79.534,260.593 79.539,263.075 80.317 C 267.746 81.781,267.214 81.066,259.890 76.036 C 251.161 70.042,243.017 63.121,243.593 62.189 C 243.683 62.042,244.448 61.693,245.292 61.413 C 248.216 60.442,248.343 58.862,245.625 57.288 C 244.680 56.741,243.357 55.967,242.685 55.569 C 240.534 54.292,230.909 44.300,231.378 43.830 C 231.460 43.748,233.163 44.343,235.162 45.152 C 237.160 45.961,240.409 47.022,242.381 47.509 C 247.499 48.775,249.937 50.139,255.477 54.839 C 260.168 58.819,261.805 59.546,263.158 58.250 C 266.451 55.095,286.644 64.765,287.994 70.144 C 288.456 71.985,287.198 71.578,282.921 68.505 C 276.221 63.690,272.213 61.957,269.475 62.691 C 265.891 63.652,282.352 81.806,291.797 87.309 C 292.426 87.676,292.251 87.081,291.294 85.600 C 287.301 79.423,285.943 77.531,283.292 74.448 C 279.411 69.936,279.585 69.707,284.425 72.964 C 289.177 76.162,288.503 76.158,290.003 73.000 C 291.605 69.627,291.726 66.290,290.445 60.781 C 289.118 55.075,289.116 55.017,290.282 54.044 L 291.287 53.205 289.159 51.859 C 261.339 34.261,238.056 26.349,207.534 24.121 L 204.600 23.906 203.864 21.430 C 202.959 18.383,202.278 18.656,209.406 19.214 C 236.827 21.362,260.510 28.650,282.344 41.660 C 310.972 58.718,318.466 64.910,336.126 86.094 C 344.821 96.524,344.464 95.875,343.337 99.218 C 342.367 102.091,342.409 102.104,339.148 97.896 C 335.312 92.946,332.971 90.144,326.531 82.791 C 325.224 81.299,323.689 79.498,323.119 78.789 C 321.392 76.640,321.679 77.575,324.133 82.097 C 328.136 89.473,331.751 97.484,336.020 108.438 C 337.394 111.961,339.144 116.453,339.910 118.421 L 341.303 121.998 340.460 126.702 C 339.997 129.289,339.418 132.531,339.174 133.906 C 338.931 135.281,338.651 136.669,338.552 136.990 C 338.234 138.021,339.170 137.382,339.901 136.069 C 340.277 135.395,341.191 134.412,341.932 133.885 C 344.595 131.992,345.469 121.062,343.300 116.781 C 341.968 114.151,342.768 110.511,346.290 103.189 C 351.108 93.173,352.664 94.420,352.645 108.281 C 352.630 119.218,351.959 124.732,348.691 140.781 C 346.959 149.284,346.724 150.625,346.967 150.625 C 347.055 150.625,348.628 149.623,350.462 148.399 C 352.296 147.174,353.906 146.295,354.039 146.445 C 354.172 146.596,354.458 150.205,354.674 154.466 C 355.371 168.189,354.474 176.458,351.219 186.314 C 349.380 191.881,349.343 192.319,350.672 192.782 C 353.485 193.763,354.192 193.082,354.295 189.290 C 354.419 184.742,356.195 180.345,358.926 177.827 C 366.298 171.033,363.460 189.907,354.945 204.308 C 349.901 212.839,348.734 218.617,351.796 219.896 C 353.203 220.484,353.796 220.250,355.974 218.248 C 358.758 215.689,360.938 216.191,360.938 219.391 C 360.938 224.897,345.277 245.439,333.274 255.678 C 327.233 260.831,325.816 263.122,326.157 267.189 L 326.342 269.387 327.124 268.874 C 327.786 268.441,330.909 265.906,335.487 262.086 C 336.070 261.600,336.660 261.273,336.799 261.359 C 337.043 261.510,336.789 266.585,336.402 269.297 C 336.165 270.948,336.732 271.078,338.045 269.673 C 338.791 268.876,339.349 268.649,341.497 268.274 C 346.279 267.440,349.945 264.955,353.053 260.444 C 355.421 257.006,354.991 256.424,351.216 257.958 C 349.090 258.822,346.474 259.375,344.512 259.375 C 342.651 259.375,342.374 259.843,342.586 262.639 C 342.811 265.622,341.449 267.029,339.866 265.446 C 335.852 261.433,352.390 250.669,358.590 253.259 C 359.556 253.663,359.674 253.655,359.815 253.181 C 359.900 252.893,360.944 249.422,362.135 245.469 C 367.078 229.057,368.560 222.955,369.423 215.469 C 369.951 210.892,369.952 193.085,369.425 187.188 C 367.791 168.911,364.881 152.352,361.982 144.844 C 361.370 143.257,360.776 141.010,360.620 139.688 C 360.467 138.398,359.925 136.219,359.415 134.844 C 358.219 131.622,355.347 124.954,354.946 124.469 C 354.628 124.083,355.800 116.037,356.249 115.530 C 356.371 115.392,356.763 115.954,357.119 116.780 C 357.476 117.606,358.484 119.803,359.361 121.663 C 362.933 129.246,365.625 136.528,365.625 138.613 C 365.625 139.015,366.320 141.526,367.169 144.192 C 369.491 151.480,371.350 160.561,372.772 171.563 C 376.198 198.049,375.882 213.312,371.553 230.469 C 361.896 268.744,348.277 297.441,332.176 313.438 C 322.046 323.502,316.157 328.789,308.438 334.749 C 306.289 336.408,303.688 338.463,302.656 339.315 C 300.245 341.308,290.871 347.235,289.002 347.949 C 287.607 348.482,287.527 348.479,286.103 347.849 C 284.166 346.992,284.315 346.432,286.876 344.955 C 288.837 343.824,290.937 342.103,290.938 341.628 C 290.938 341.502,286.895 341.399,281.953 341.401 C 276.580 341.402,271.838 341.249,270.156 341.020 C 266.428 340.513,259.588 340.164,258.861 340.444 C 258.342 340.644,258.387 340.755,259.296 341.505 C 260.276 342.314,260.298 342.385,259.943 343.527 C 259.420 345.213,259.847 345.501,264.237 346.423 C 268.122 347.239,271.250 348.488,271.250 349.224 C 271.250 350.677,268.566 350.917,260.469 350.190 C 257.814 349.951,255.787 349.905,255.313 350.072 C 253.095 350.854,250.864 353.296,250.861 354.945 C 250.858 356.376,251.370 356.321,254.983 354.498 L 258.505 352.722 261.518 352.921 C 264.628 353.126,268.257 353.774,268.671 354.197 C 269.249 354.789,262.443 359.724,259.356 360.951 C 256.806 361.964,251.070 363.838,242.188 366.560 C 230.877 370.026,229.997 370.248,225.468 370.771 C 223.234 371.030,220.211 371.525,218.750 371.872 C 211.447 373.607,198.157 373.371,183.125 371.240 C 180.805 370.911,176.516 370.497,173.594 370.319 C 153.290 369.088,145.233 367.379,134.312 361.984 C 132.759 361.216,130.710 360.297,129.759 359.941 C 128.808 359.586,126.576 358.469,124.798 357.460 C 121.338 355.495,120.916 355.367,120.313 356.094 C 119.259 357.364,117.052 356.407,106.406 350.061 C 90.629 340.657,77.013 328.690,64.199 312.964 C 45.016 289.422,37.946 277.367,30.664 255.781 C 29.794 253.203,28.911 250.648,28.701 250.103 C 28.127 248.612,28.687 248.125,30.976 248.125 C 33.146 248.125,33.596 248.469,34.959 251.169 C 35.859 252.951,35.912 252.994,38.044 253.660 C 39.238 254.033,42.277 255.190,44.799 256.232 C 48.684 257.836,53.254 259.375,54.134 259.375 C 54.669 259.375,54.300 258.529,52.850 256.428 C 48.073 249.508,44.186 240.785,42.650 233.533 C 41.671 228.909,41.346 228.340,39.014 227.163 C 35.519 225.399,32.838 220.674,34.684 219.533 C 36.724 218.272,60.000 238.865,60.000 241.931 C 60.000 244.055,55.052 243.071,53.028 240.544 C 50.334 237.181,50.206 237.079,48.930 237.319 C 47.766 237.537,47.753 237.555,47.966 238.692 C 49.132 244.922,63.157 263.982,71.558 270.753 C 77.265 275.353,79.173 274.928,73.950 270.220 C 66.592 263.589,63.713 260.464,61.287 256.479 C 59.189 253.031,59.972 251.902,63.323 253.546 C 65.283 254.507,65.281 254.510,64.065 252.709 C 60.918 248.045,60.758 245.495,63.412 242.245 C 64.726 240.636,65.085 240.615,65.701 242.109 C 74.940 264.507,79.167 271.290,81.961 268.203 C 85.317 264.494,82.289 252.932,72.202 230.938 C 66.518 218.544,62.821 216.098,63.308 225.053 C 63.524 229.028,63.520 229.064,62.696 230.309 C 60.151 234.155,53.795 228.605,55.440 223.974 L 55.976 222.464 55.134 220.998 C 54.671 220.191,51.790 217.071,48.732 214.063 C 40.386 205.853,35.911 199.659,29.539 187.500 C 28.504 185.523,27.516 183.906,27.344 183.906 C 26.875 183.906,26.753 204.121,27.183 210.469 C 27.891 220.927,29.568 232.241,31.733 241.169 C 32.327 243.616,32.812 245.769,32.812 245.953 C 32.812 246.137,31.793 245.584,30.547 244.725 C 29.301 243.866,27.898 243.019,27.431 242.842 C 26.932 242.655,26.524 242.227,26.444 241.808 C 26.369 241.415,26.081 239.758,25.804 238.125 C 25.527 236.492,24.889 232.766,24.387 229.844 C 21.526 213.201,21.007 183.756,23.319 169.375 C 25.150 157.993,31.271 138.509,36.850 126.303 C 46.088 106.092,67.136 78.492,85.156 62.958 C 97.171 52.601,108.061 44.850,117.544 39.903 C 119.716 38.770,122.669 37.087,124.106 36.163 C 128.676 33.224,130.872 32.146,135.097 30.767 C 137.364 30.027,141.258 28.691,143.750 27.798 C 160.290 21.870,173.141 19.191,186.959 18.793 L 188.449 18.750 188.350 21.328 M199.099 19.963 C 200.156 21.020,200.313 21.361,200.313 22.611 C 200.313 24.127,203.057 29.713,207.925 38.109 C 209.066 40.077,210.000 41.818,210.000 41.978 C 210.000 42.138,210.987 41.294,212.193 40.102 L 214.386 37.935 218.443 37.887 C 220.674 37.861,222.500 37.884,222.500 37.939 C 222.500 37.994,220.320 40.255,217.656 42.964 C 212.163 48.549,212.479 47.968,213.872 49.921 C 214.455 50.738,216.226 54.008,217.808 57.188 C 219.389 60.367,220.831 63.148,221.011 63.367 C 221.192 63.586,221.235 63.867,221.107 63.992 C 220.593 64.495,217.112 59.663,213.448 53.359 C 212.374 51.512,211.322 50.000,211.109 50.000 C 210.896 50.000,208.486 52.477,205.752 55.505 C 200.513 61.308,196.543 65.000,195.541 65.000 C 194.835 65.000,187.147 57.367,183.896 53.438 C 181.073 50.026,181.200 49.996,177.857 54.884 C 172.800 62.278,169.839 65.807,170.482 63.672 C 170.744 62.804,177.288 51.483,178.353 50.057 L 179.127 49.019 176.880 46.950 C 174.759 44.997,173.609 43.634,170.821 39.770 L 169.641 38.134 173.805 38.286 L 177.969 38.439 180.156 40.803 L 182.344 43.168 183.110 41.662 C 183.531 40.834,184.741 38.750,185.798 37.031 C 190.990 28.593,193.211 24.344,192.847 23.545 C 191.109 19.729,196.040 16.904,199.099 19.963 M197.255 21.358 C 197.531 22.804,195.763 23.103,194.647 21.799 C 193.694 20.686,193.243 21.651,194.156 22.850 C 195.090 24.077,199.027 23.242,198.604 21.906 C 198.262 20.830,197.060 20.341,197.255 21.358 M191.887 30.970 C 190.776 33.209,189.194 35.875,188.371 36.897 C 186.397 39.347,186.361 39.807,188.219 38.871 C 189.883 38.031,190.916 36.847,192.415 34.063 C 193.202 32.602,194.193 30.935,194.618 30.359 C 195.338 29.385,195.364 29.228,194.990 28.094 C 194.386 26.263,194.084 26.543,191.887 30.970 M195.714 31.953 C 195.549 32.168,194.670 33.750,193.760 35.469 C 191.764 39.242,191.515 39.541,189.548 40.539 C 188.000 41.324,184.375 44.513,184.375 45.089 C 184.375 45.258,186.238 47.320,188.516 49.672 C 190.793 52.024,193.219 54.669,193.906 55.551 C 195.546 57.655,195.636 57.670,196.938 56.066 C 197.549 55.311,200.176 52.501,202.775 49.821 C 205.374 47.141,207.500 44.708,207.500 44.414 C 207.500 43.777,205.415 41.722,203.386 40.360 C 202.351 39.665,201.272 38.405,199.669 36.019 C 196.524 31.337,196.336 31.143,195.714 31.953 M206.250 39.498 C 206.250 39.798,210.457 47.713,210.878 48.203 C 213.248 50.966,210.727 44.616,207.962 40.859 C 207.049 39.620,206.250 38.984,206.250 39.498 M181.103 46.100 C 179.895 47.990,179.740 48.417,180.493 47.792 C 180.997 47.374,182.634 44.375,182.359 44.375 C 182.275 44.375,181.710 45.151,181.103 46.100 M136.697 51.066 C 133.024 52.784,125.131 60.362,127.506 59.891 C 130.624 59.272,134.953 56.171,137.164 52.973 C 138.969 50.362,138.891 50.041,136.697 51.066 M296.250 56.392 C 296.250 56.502,297.282 57.957,298.542 59.624 C 304.880 68.007,309.365 77.113,310.270 83.438 C 310.454 84.727,310.740 86.823,310.906 88.096 C 311.472 92.457,312.892 92.777,317.710 89.632 C 320.947 87.519,321.211 87.015,320.041 85.170 C 318.435 82.638,318.146 80.125,318.938 75.567 C 319.287 73.556,312.878 67.671,302.943 60.879 C 301.038 59.577,298.753 57.990,297.865 57.352 C 296.977 56.713,296.250 56.282,296.250 56.392 M251.250 64.640 C 251.250 64.755,251.533 65.026,251.879 65.242 C 252.224 65.458,255.085 67.648,258.236 70.109 C 264.134 74.714,268.254 77.500,269.167 77.500 C 271.646 77.500,266.438 71.000,261.708 68.190 C 258.803 66.464,251.250 63.900,251.250 64.640 M84.700 76.908 C 82.861 79.446,81.283 85.290,80.470 92.569 C 79.974 97.005,79.830 105.321,80.257 104.828 C 81.063 103.899,87.810 81.978,88.253 78.852 C 88.651 76.037,86.273 74.736,84.700 76.908 M172.021 78.394 C 178.780 80.817,179.530 89.948,173.271 93.616 C 171.588 94.603,171.598 94.471,173.065 96.230 C 174.347 97.767,178.125 103.034,178.125 103.285 C 178.125 103.369,176.648 103.438,174.844 103.438 C 170.936 103.438,171.275 103.676,168.256 98.804 C 165.848 94.919,165.896 94.953,163.281 95.253 L 161.406 95.469 161.406 99.531 L 161.406 103.594 158.563 103.683 L 155.719 103.772 155.518 101.183 C 155.257 97.828,155.254 83.292,155.513 80.218 L 155.714 77.842 157.310 77.709 C 161.824 77.333,170.140 77.720,172.021 78.394 M211.621 78.516 C 211.690 78.730,211.623 82.492,211.472 86.875 C 211.322 91.258,211.291 95.720,211.405 96.790 L 211.611 98.737 217.915 98.822 L 224.219 98.906 224.310 101.489 L 224.400 104.072 215.091 103.989 L 205.781 103.906 205.699 91.406 C 205.604 76.919,205.296 78.125,209.089 78.125 C 210.739 78.125,211.535 78.248,211.621 78.516 M295.000 82.319 C 295.000 82.942,296.974 87.554,297.922 89.145 C 299.713 92.154,301.491 93.185,301.145 91.016 C 300.543 87.232,295.000 79.388,295.000 82.319 M161.666 83.307 C 161.543 83.626,161.435 85.228,161.424 86.866 L 161.406 89.844 164.931 89.932 C 170.769 90.079,173.394 87.754,171.021 84.540 C 169.856 82.964,162.185 81.952,161.666 83.307 M193.548 87.025 C 193.730 87.499,193.509 92.220,193.295 92.434 C 193.006 92.723,190.539 92.871,189.246 92.677 C 187.072 92.351,186.120 87.394,188.125 86.841 C 189.702 86.405,193.358 86.529,193.548 87.025 M240.176 86.907 C 240.409 87.284,240.454 92.151,240.226 92.378 C 239.931 92.673,236.885 92.884,235.819 92.684 C 233.934 92.330,233.234 87.328,235.000 86.841 C 236.290 86.484,239.944 86.531,240.176 86.907 M303.987 92.680 C 303.052 93.615,309.666 110.204,314.758 119.698 C 316.353 122.672,322.389 131.577,323.113 132.024 C 323.446 132.230,325.571 130.026,327.135 127.853 C 328.947 125.336,328.764 124.589,323.622 113.497 C 320.196 106.107,319.422 102.354,320.443 98.084 C 320.954 95.946,320.735 95.433,319.489 95.845 C 318.348 96.223,317.079 98.040,317.355 98.900 C 318.580 102.706,317.224 102.405,311.719 97.647 C 306.675 93.287,304.668 91.998,303.987 92.680 M187.188 100.450 L 187.188 103.399 185.859 103.596 C 185.129 103.704,183.758 103.748,182.813 103.693 L 181.094 103.594 181.002 100.964 C 180.876 97.337,180.725 97.500,184.209 97.500 L 187.188 97.500 187.188 100.450 M234.063 100.442 L 234.063 103.384 231.727 103.603 C 227.854 103.966,227.813 103.934,227.813 100.645 C 227.813 97.398,227.632 97.558,231.328 97.525 L 234.063 97.500 234.063 100.442 M200.247 101.016 L 200.337 103.750 197.523 103.750 C 194.163 103.750,194.063 103.650,194.063 100.322 L 194.063 98.102 197.109 98.192 L 200.156 98.281 200.247 101.016 M247.132 100.988 C 247.250 104.143,247.451 103.985,243.635 103.750 L 241.094 103.594 241.003 100.848 L 240.913 98.102 243.972 98.192 L 247.031 98.281 247.132 100.988 M87.273 103.828 C 86.218 104.973,81.014 113.101,76.718 120.313 C 74.517 124.008,71.957 128.253,71.030 129.747 L 69.343 132.462 70.897 136.032 C 73.497 142.002,73.802 145.792,71.907 148.547 C 70.138 151.119,71.302 151.971,73.470 149.691 C 79.917 142.914,88.750 116.057,88.750 103.231 C 88.750 102.861,87.817 103.239,87.273 103.828 M327.708 108.333 C 326.442 109.600,329.340 120.378,331.132 121.065 C 333.667 122.038,332.801 111.523,330.126 108.848 C 329.438 108.160,328.155 107.887,327.708 108.333 M319.325 112.912 C 324.727 120.983,327.320 126.626,325.781 126.963 C 325.511 127.022,317.263 111.212,317.208 110.528 C 317.161 109.955,317.908 110.796,319.325 112.912 M132.211 112.969 C 133.429 114.087,135.504 115.878,136.822 116.950 C 138.140 118.022,140.920 120.377,142.999 122.184 C 145.078 123.990,147.433 126.003,148.233 126.656 C 149.985 128.086,150.021 128.429,148.553 129.639 C 147.261 130.705,146.963 130.663,145.078 129.149 L 143.750 128.083 142.734 128.786 C 141.486 129.651,139.256 131.590,139.115 131.933 C 139.058 132.071,139.515 132.773,140.131 133.492 C 141.547 135.147,141.534 135.336,139.922 136.680 C 138.233 138.087,138.330 138.182,135.068 131.875 C 133.690 129.211,131.069 124.371,129.243 121.120 C 125.306 114.108,125.319 114.148,126.469 113.095 C 129.337 110.469,129.484 110.466,132.211 112.969 M214.688 113.910 C 227.475 116.558,238.333 123.859,237.217 129.060 C 237.023 129.964,236.875 133.890,236.875 138.115 C 236.875 146.001,236.814 146.563,235.952 146.563 C 234.862 146.563,234.461 145.575,234.240 142.344 C 233.975 138.468,233.144 135.015,231.871 132.493 C 230.679 130.131,230.465 130.227,231.082 132.845 C 232.024 136.841,231.520 144.426,230.116 147.385 C 229.444 148.800,226.735 151.232,224.571 152.363 C 222.474 153.459,222.486 153.360,224.293 154.531 C 229.262 157.752,226.032 162.922,218.341 164.057 C 212.067 164.983,209.250 165.876,208.095 167.302 C 207.814 167.649,206.969 168.082,206.217 168.263 C 204.097 168.776,204.285 170.307,206.585 171.259 C 207.814 171.768,207.763 171.902,205.846 173.223 C 204.936 173.849,203.797 174.774,203.315 175.277 L 202.439 176.192 203.130 178.174 C 203.510 179.264,204.501 181.226,205.331 182.534 C 206.930 185.052,207.437 186.371,206.929 186.686 C 206.416 187.002,205.820 186.609,205.075 185.462 C 204.327 184.310,203.738 184.105,203.163 184.798 C 202.962 185.041,201.881 185.300,200.640 185.404 C 197.888 185.635,197.067 186.041,197.320 187.047 C 197.471 187.649,197.331 187.884,196.594 188.265 C 195.483 188.840,194.375 190.190,194.375 190.970 C 194.375 191.285,194.067 192.134,193.691 192.855 C 192.841 194.486,192.603 198.426,193.203 200.938 L 193.614 202.656 194.854 202.598 C 196.829 202.505,200.000 202.125,200.000 201.981 C 200.000 201.909,199.709 201.280,199.353 200.582 C 197.828 197.593,199.933 197.570,201.740 200.556 C 203.219 202.999,204.560 203.486,206.287 202.209 C 207.651 201.201,209.375 201.705,209.375 203.111 C 209.375 203.394,209.528 203.778,209.716 203.966 C 210.567 204.817,209.091 212.806,208.081 212.810 C 206.893 212.815,206.125 211.746,206.514 210.630 C 207.213 208.625,207.061 208.335,205.410 208.521 C 203.811 208.702,203.125 209.319,203.125 210.577 C 203.125 212.994,199.314 214.594,198.729 212.422 C 197.758 208.810,196.718 208.382,196.494 211.502 C 196.246 214.970,194.963 216.537,193.476 215.191 C 193.102 214.853,192.600 214.761,191.816 214.888 C 190.839 215.047,190.580 214.944,189.828 214.101 C 189.184 213.377,188.862 213.215,188.564 213.462 C 187.735 214.150,182.293 208.950,182.603 207.766 C 182.749 207.208,181.881 205.453,180.307 203.119 C 179.312 201.645,179.313 201.150,180.315 200.204 C 180.829 199.719,181.250 199.177,181.250 199.001 C 181.250 198.693,181.843 198.747,183.828 199.236 C 185.276 199.593,184.798 198.874,183.101 198.145 L 181.515 197.462 182.062 196.622 C 183.341 194.657,183.981 194.713,185.035 196.880 C 185.936 198.732,186.111 198.783,186.362 197.266 C 186.812 194.542,186.614 192.233,185.945 192.407 C 185.591 192.500,184.721 192.213,183.901 191.732 C 181.397 190.265,177.097 189.976,174.778 191.119 C 172.914 192.038,173.110 192.581,175.061 191.901 C 176.575 191.373,178.482 191.497,179.632 192.198 C 180.540 192.752,180.876 193.684,180.117 193.543 C 179.967 193.515,179.296 193.390,178.627 193.265 C 177.749 193.102,177.471 193.138,177.630 193.394 C 177.750 193.590,178.133 193.750,178.479 193.750 C 179.913 193.750,178.961 194.842,177.494 194.880 C 176.521 194.905,176.123 195.039,176.188 195.320 C 176.334 195.941,175.666 196.196,174.357 196.020 C 173.704 195.933,172.743 196.009,172.224 196.191 C 169.393 197.177,163.406 189.048,163.406 184.217 C 163.406 180.356,163.802 179.985,166.070 181.717 C 167.778 183.021,167.823 182.876,166.401 180.644 C 165.749 179.621,165.240 178.355,165.122 177.462 C 164.931 176.023,164.889 175.974,163.683 175.770 C 160.790 175.281,160.298 171.318,162.566 166.776 C 163.526 164.854,164.558 162.684,164.860 161.953 C 165.239 161.034,165.595 160.625,166.015 160.625 C 166.583 160.625,166.569 160.534,165.790 159.205 C 165.332 158.424,165.010 157.625,165.075 157.430 C 165.257 156.885,167.080 159.331,168.288 161.742 C 169.169 163.501,169.338 163.701,169.189 162.813 C 168.931 161.276,167.682 158.601,166.561 157.186 C 164.423 154.486,163.455 150.577,163.444 144.596 C 163.420 131.959,168.034 127.130,189.865 116.938 C 199.179 112.590,204.923 111.889,214.688 113.910 M276.960 119.710 C 278.524 120.999,278.598 120.844,274.609 124.629 C 272.676 126.464,268.391 130.603,265.088 133.827 C 258.413 140.340,258.872 140.050,257.355 138.718 C 255.701 137.266,255.800 137.110,261.953 131.489 C 265.090 128.624,269.342 124.586,271.401 122.515 C 275.606 118.288,275.376 118.404,276.960 119.710 M133.125 119.825 C 133.125 120.440,136.500 127.059,137.044 127.510 C 137.531 127.915,139.070 127.137,140.156 125.938 C 140.733 125.300,140.720 125.272,139.042 123.564 C 136.381 120.855,133.125 118.798,133.125 119.825 M80.000 124.555 C 80.000 125.480,74.263 139.282,73.609 139.931 C 72.865 140.669,76.595 128.793,78.138 125.511 C 78.816 124.069,80.000 123.461,80.000 124.555 M119.392 125.162 C 122.359 126.209,124.063 128.407,124.063 131.189 C 124.063 133.235,124.210 133.342,130.814 136.112 C 137.590 138.954,137.560 138.929,136.241 140.431 C 134.598 142.303,134.323 142.264,128.374 139.337 L 123.051 136.719 121.682 138.273 C 119.742 140.475,119.472 140.107,127.478 146.160 C 129.965 148.041,129.985 148.106,128.576 149.666 C 127.098 151.302,126.706 151.268,124.832 149.350 C 123.979 148.476,119.520 144.738,114.922 141.042 C 105.591 133.541,106.141 134.203,107.757 132.415 C 108.414 131.688,109.731 130.109,110.684 128.906 C 113.964 124.763,115.900 123.930,119.392 125.162 M284.338 127.662 C 285.731 129.248,285.881 130.164,284.915 131.192 C 283.918 132.255,278.308 140.857,277.419 142.687 C 275.902 145.809,277.919 144.877,286.727 138.384 C 290.154 135.857,290.027 135.878,291.235 137.634 C 292.508 139.485,292.531 139.429,289.766 141.150 C 287.543 142.533,281.092 146.872,273.127 152.341 L 269.946 154.525 268.879 153.361 C 267.277 151.612,267.290 151.585,275.482 139.391 C 278.290 135.212,276.346 135.932,267.302 142.422 C 263.652 145.041,263.489 145.075,262.027 143.525 C 260.495 141.900,258.580 143.484,280.452 128.288 C 283.391 126.245,283.131 126.287,284.338 127.662 M116.068 128.724 C 115.421 129.002,113.167 131.383,112.265 132.742 C 111.679 133.625,112.049 134.104,114.883 136.131 C 117.328 137.879,117.316 137.881,119.485 135.226 C 122.553 131.470,120.182 126.959,116.068 128.724 M104.886 142.526 C 106.233 143.359,106.256 143.229,104.103 146.970 C 101.478 151.529,100.539 153.479,100.835 153.753 C 100.977 153.884,102.076 154.420,103.277 154.942 C 105.771 156.028,105.969 155.964,106.692 153.844 C 107.800 150.592,109.040 149.810,111.278 150.952 C 112.935 151.797,113.028 152.189,111.979 153.899 C 110.130 156.908,109.698 157.663,109.693 157.888 C 109.687 158.151,116.370 161.563,116.892 161.563 C 117.248 161.563,119.698 156.541,120.971 153.203 C 121.840 150.925,121.748 150.956,123.736 152.266 C 125.459 153.400,125.560 153.725,124.740 155.488 C 124.424 156.165,123.686 157.838,123.099 159.206 C 121.298 163.401,119.237 167.347,118.880 167.283 C 118.491 167.213,95.272 155.689,95.028 155.445 C 94.940 155.356,95.048 154.995,95.269 154.642 C 95.489 154.288,96.793 151.598,98.166 148.662 C 101.798 140.898,101.981 140.731,104.886 142.526 M341.837 145.278 C 341.175 145.527,339.832 147.154,339.554 148.044 C 339.214 149.131,340.592 149.656,342.011 148.979 C 343.994 148.033,343.830 144.526,341.837 145.278 M296.227 147.097 C 297.356 148.910,297.448 148.777,293.968 150.371 C 292.387 151.096,287.076 153.699,282.164 156.157 C 277.253 158.614,273.145 160.625,273.035 160.625 C 272.729 160.625,271.250 158.348,271.250 157.876 C 271.250 157.640,275.622 155.310,281.328 152.505 C 286.871 149.779,292.109 147.124,292.969 146.603 C 295.026 145.356,295.156 145.376,296.227 147.097 M349.727 153.957 C 346.532 157.833,343.008 168.638,341.578 178.942 C 340.682 185.392,340.909 187.810,342.995 194.033 C 343.174 194.566,345.580 191.264,346.907 188.665 C 349.307 183.966,351.707 170.871,352.075 160.469 C 352.339 153.033,351.776 151.472,349.727 153.957 M297.896 158.617 C 303.494 160.525,304.974 168.352,300.329 171.482 C 297.401 173.456,295.640 170.628,298.122 167.936 C 303.095 162.541,293.476 160.044,284.697 164.452 C 279.111 167.257,278.129 172.813,283.219 172.813 C 284.768 172.813,285.039 173.046,285.555 174.817 C 286.030 176.450,285.905 176.564,283.653 176.556 C 276.501 176.530,273.936 168.679,279.421 163.602 C 283.807 159.541,293.182 157.011,297.896 158.617 M41.180 162.109 C 41.534 173.769,56.518 207.421,62.772 210.603 C 63.856 211.154,66.250 211.930,66.250 211.729 C 66.250 211.677,64.533 209.051,62.434 205.895 C 55.734 195.819,48.953 183.817,48.686 181.563 C 48.458 179.633,50.512 180.565,54.162 184.047 C 56.978 186.734,57.071 186.645,55.502 182.774 C 51.878 173.831,48.433 167.661,43.526 161.328 C 41.020 158.093,41.058 158.080,41.180 162.109 M106.406 166.241 C 116.348 169.481,117.756 171.677,115.774 180.846 C 115.340 182.853,114.918 184.561,114.836 184.643 C 114.650 184.829,114.510 184.795,100.530 181.136 C 94.204 179.480,88.966 178.125,88.889 178.125 C 88.242 178.125,89.781 171.016,90.905 168.813 C 92.918 164.868,99.064 163.848,106.406 166.241 M232.567 166.473 C 234.318 168.197,234.402 168.721,233.101 169.816 C 231.941 170.792,231.867 170.794,226.910 169.970 C 218.232 168.527,217.009 167.132,224.367 167.070 L 228.891 167.031 229.524 166.028 C 230.374 164.679,230.811 164.743,232.567 166.473 M166.065 166.716 C 166.177 167.161,166.048 167.998,165.763 168.669 C 165.490 169.315,165.148 170.547,165.004 171.406 C 164.860 172.266,164.644 173.355,164.525 173.828 C 164.211 175.069,164.827 174.901,165.457 173.575 C 165.747 172.963,166.181 172.387,166.420 172.295 C 167.006 172.071,168.750 169.403,168.750 168.733 C 168.750 168.252,166.522 165.938,166.059 165.938 C 165.955 165.938,165.958 166.288,166.065 166.716 M186.563 166.467 C 185.961 166.730,184.063 167.204,182.344 167.519 C 172.631 169.299,171.877 169.570,169.892 171.993 C 168.420 173.790,168.407 173.952,169.688 174.602 L 170.781 175.156 170.818 178.125 C 170.876 182.788,174.276 187.608,177.416 187.477 C 177.740 187.463,177.499 187.237,176.831 186.930 C 174.910 186.046,173.116 183.200,174.915 183.890 C 175.179 183.992,175.565 183.837,175.780 183.543 C 176.135 183.057,176.270 183.096,177.374 184.006 C 178.765 185.153,179.527 185.260,180.000 184.375 C 180.503 183.436,181.861 183.596,183.546 184.794 L 185.016 185.839 186.594 185.083 C 188.386 184.226,190.897 183.737,189.895 184.441 C 188.980 185.084,187.939 186.033,188.292 185.901 C 188.470 185.835,189.838 185.156,191.333 184.393 L 194.051 183.004 193.865 181.844 C 193.710 180.876,193.789 180.626,194.340 180.331 C 195.248 179.845,195.195 179.633,193.614 177.461 C 192.438 175.845,192.273 175.441,192.521 174.789 C 193.036 173.435,192.842 172.665,191.719 171.606 C 190.053 170.035,190.784 169.272,192.733 170.547 C 194.515 171.712,191.273 168.349,188.992 166.666 C 187.858 165.830,187.993 165.841,186.563 166.467 M96.672 168.779 C 95.686 169.065,93.766 170.940,93.731 171.651 C 93.721 171.860,93.602 172.706,93.466 173.530 C 93.152 175.441,92.541 175.161,102.445 177.642 C 112.140 180.071,111.749 180.036,112.171 178.516 C 113.481 173.799,112.335 172.254,106.069 170.291 C 104.295 169.735,98.301 168.403,97.856 168.466 C 97.746 168.481,97.214 168.622,96.672 168.779 M207.813 175.550 C 207.813 175.852,207.531 176.275,207.188 176.490 C 206.303 177.043,206.405 177.538,207.656 178.750 C 208.994 180.047,209.021 180.561,207.808 181.723 C 206.989 182.508,206.809 182.566,206.429 182.172 C 205.638 181.352,204.319 177.767,204.517 176.977 C 204.860 175.608,207.813 174.330,207.813 175.550 M332.979 175.954 C 333.813 177.303,332.785 180.625,331.533 180.625 C 330.937 180.625,330.907 180.500,331.104 178.828 C 331.390 176.401,332.348 174.933,332.979 175.954 M306.417 178.245 C 306.813 180.884,307.573 180.583,295.935 182.403 C 282.213 184.548,280.049 184.841,279.795 184.587 C 279.678 184.470,279.519 183.608,279.441 182.671 C 279.277 180.690,278.943 180.866,283.906 180.311 C 287.799 179.875,300.707 177.930,303.438 177.368 C 304.555 177.138,305.636 176.933,305.840 176.912 C 306.049 176.891,306.301 177.473,306.417 178.245 M345.713 178.966 C 345.909 179.989,345.402 183.786,345.018 184.169 C 344.105 185.082,343.756 180.728,344.571 178.602 C 344.865 177.837,345.538 178.052,345.713 178.966 M234.491 181.641 C 235.767 186.402,233.554 192.188,230.457 192.188 C 229.678 192.188,227.835 192.490,226.363 192.859 C 223.946 193.465,223.342 193.501,220.139 193.228 L 216.591 192.926 213.921 191.148 C 210.073 188.588,209.688 188.203,209.688 186.923 C 209.688 186.026,210.043 185.740,210.198 186.510 C 210.377 187.397,210.756 188.108,211.125 188.250 C 211.747 188.489,211.672 188.036,210.781 186.190 C 209.593 183.728,209.828 183.530,211.797 185.332 C 215.827 189.022,222.292 190.611,225.860 188.789 C 228.262 187.562,230.884 185.359,231.741 183.846 C 233.215 181.246,233.441 180.938,233.877 180.938 C 234.111 180.938,234.387 181.254,234.491 181.641 M66.325 183.672 C 66.873 184.290,67.813 186.901,67.813 187.805 C 67.813 189.670,66.400 188.470,65.338 185.702 C 64.477 183.459,65.065 182.250,66.325 183.672 M114.193 186.127 C 114.715 186.328,114.810 187.121,114.499 188.678 C 114.319 189.579,114.215 189.635,112.233 189.889 L 110.156 190.156 109.886 193.084 C 109.583 196.371,109.597 196.399,111.712 196.726 C 114.084 197.093,114.063 197.073,114.063 198.937 C 114.063 201.198,114.038 201.202,108.556 199.696 C 105.999 198.993,100.531 197.652,96.406 196.716 C 92.281 195.779,88.590 194.923,88.203 194.814 C 87.557 194.631,87.500 194.431,87.500 192.346 C 87.500 189.631,87.660 189.447,90.365 189.055 C 100.320 187.612,111.356 186.124,113.178 185.979 C 113.464 185.956,113.921 186.023,114.193 186.127 M285.379 188.101 C 286.803 188.432,291.575 189.274,295.983 189.973 C 300.391 190.671,304.715 191.397,305.592 191.585 L 307.188 191.927 307.188 194.532 C 307.188 197.127,307.184 197.139,306.328 197.302 C 305.143 197.528,290.569 200.493,286.616 201.312 C 284.841 201.680,282.801 201.992,282.085 202.006 L 280.781 202.031 280.688 200.251 L 280.595 198.471 281.782 198.268 C 285.246 197.673,285.211 197.722,284.850 193.866 L 284.639 191.614 283.023 191.410 C 280.275 191.061,280.313 191.092,280.313 189.198 L 280.313 187.500 281.550 187.500 C 282.231 187.500,283.954 187.771,285.379 188.101 M100.938 191.101 C 95.877 191.892,95.558 192.372,99.309 193.550 C 105.597 195.525,106.250 195.441,106.250 192.666 L 106.250 190.625 104.922 190.655 C 104.191 190.672,102.398 190.872,100.938 191.101 M40.000 192.176 C 40.000 194.532,42.703 199.170,44.219 199.415 C 45.741 199.660,45.977 198.688,44.957 196.382 C 43.677 193.487,40.000 190.368,40.000 192.176 M288.630 192.987 C 287.919 194.841,288.579 196.875,289.893 196.875 C 292.293 196.875,298.125 195.307,298.125 194.662 C 298.125 194.327,295.507 193.575,292.813 193.136 C 291.695 192.954,290.341 192.733,289.802 192.645 C 289.088 192.529,288.770 192.621,288.630 192.987 M207.177 195.918 C 207.372 196.283,207.904 196.562,208.516 196.621 C 209.670 196.732,210.068 197.733,209.234 198.425 C 208.517 199.020,208.646 199.663,209.552 200.008 C 210.181 200.247,210.333 200.493,210.255 201.148 C 210.133 202.177,209.515 202.444,209.285 201.566 C 209.192 201.211,208.928 200.959,208.699 201.007 C 208.439 201.061,208.280 200.798,208.277 200.313 C 208.272 199.594,208.144 199.524,206.671 199.438 C 204.569 199.316,203.480 198.335,204.609 197.581 C 204.996 197.323,205.313 196.875,205.313 196.587 C 205.313 195.385,206.637 194.910,207.177 195.918 M334.995 197.891 C 334.990 199.773,334.464 201.038,333.618 201.201 C 333.036 201.313,333.048 198.253,333.635 196.723 C 334.118 195.466,335.000 196.223,334.995 197.891 M345.906 202.974 C 340.897 209.904,337.453 217.807,339.327 218.072 C 341.268 218.347,342.406 217.194,343.373 213.970 C 343.833 212.439,344.382 211.455,345.428 210.292 C 347.062 208.475,347.259 207.753,347.126 204.068 L 347.031 201.418 345.906 202.974 M107.909 204.070 C 112.495 204.733,114.498 206.937,115.473 212.388 C 115.745 213.910,116.080 215.745,116.217 216.465 C 116.558 218.250,116.513 218.281,112.969 218.703 C 111.250 218.908,107.664 219.418,105.000 219.838 C 102.336 220.257,97.847 220.962,95.026 221.404 C 89.024 222.344,89.621 222.674,88.789 217.954 C 87.174 208.797,89.981 205.842,101.829 204.226 C 105.668 203.702,105.409 203.709,107.909 204.070 M201.395 204.080 C 201.005 204.712,201.545 205.938,202.214 205.938 C 203.039 205.938,204.063 205.388,204.063 204.945 C 204.063 204.056,201.853 203.340,201.395 204.080 M189.740 205.547 C 189.301 206.396,189.008 208.399,189.223 209.076 C 189.521 210.015,190.000 209.802,190.000 208.729 C 190.000 208.203,190.121 207.535,190.269 207.245 C 190.861 206.088,190.966 205.000,190.486 205.000 C 190.231 205.000,189.895 205.246,189.740 205.547 M212.634 205.804 C 212.904 206.074,213.125 206.462,213.125 206.668 C 213.125 206.873,213.420 207.591,213.781 208.265 C 214.945 210.436,213.835 212.588,211.566 212.556 C 209.391 212.526,209.261 212.135,210.463 209.219 C 210.888 208.188,211.239 206.980,211.243 206.536 C 211.254 205.246,211.793 204.962,212.634 205.804 M294.424 206.386 C 300.240 207.706,303.768 209.778,305.151 212.686 C 307.506 217.643,303.929 223.446,298.750 223.071 L 297.344 222.969 297.374 221.593 C 297.408 220.067,297.858 219.564,299.632 219.075 C 301.913 218.445,302.645 216.110,301.267 213.851 C 299.392 210.775,288.440 208.334,284.843 210.191 C 281.797 211.763,281.478 213.839,283.933 216.105 L 285.679 217.717 285.280 219.047 C 284.773 220.739,284.380 220.872,282.738 219.904 C 279.322 217.889,278.035 214.803,279.113 211.206 C 280.482 206.635,286.781 204.652,294.424 206.386 M101.406 208.330 C 101.063 208.403,99.668 208.677,98.308 208.939 C 92.687 210.020,90.871 212.494,92.621 216.682 C 93.187 218.037,92.629 218.019,99.182 216.895 C 102.124 216.390,105.656 215.820,107.031 215.627 C 112.299 214.888,112.561 214.504,110.712 210.213 C 109.901 208.329,105.552 207.450,101.406 208.330 M161.719 208.550 C 165.565 209.579,167.723 211.350,168.438 214.063 C 169.212 217.002,177.156 222.169,194.716 231.155 L 200.526 234.128 202.685 233.190 C 209.413 230.267,212.845 228.561,214.375 227.379 C 216.196 225.972,218.662 224.427,224.158 221.250 C 228.628 218.665,230.699 216.766,231.396 214.612 C 232.253 211.964,234.126 210.430,237.656 209.487 C 240.807 208.646,241.459 208.826,242.391 210.796 C 243.676 213.509,246.629 214.471,249.664 213.165 C 256.322 210.301,260.675 218.941,254.758 223.274 C 251.068 225.976,246.813 225.699,247.394 222.794 C 247.616 221.686,247.475 221.668,243.906 222.360 C 242.305 222.670,240.761 222.771,239.609 222.641 C 237.835 222.441,236.957 223.042,238.281 223.551 C 239.733 224.108,236.628 227.285,234.785 227.127 C 233.336 227.004,232.701 226.138,233.597 225.508 C 234.499 224.875,235.835 223.680,235.469 223.833 C 234.032 224.435,221.559 230.672,219.844 231.646 C 214.674 234.582,208.432 238.555,208.659 238.766 C 208.795 238.891,209.961 239.451,211.250 240.009 C 212.539 240.568,214.890 241.630,216.475 242.370 C 222.219 245.050,227.432 246.557,230.976 246.560 C 233.740 246.563,235.591 247.198,239.063 249.332 C 241.951 251.108,241.960 251.212,239.569 255.138 C 238.304 257.214,238.173 258.325,238.910 260.753 C 239.903 264.028,238.673 263.504,235.860 259.455 C 235.473 258.898,235.042 258.441,234.902 258.440 C 234.445 258.436,235.985 260.840,237.698 262.805 C 239.562 264.942,239.512 264.810,239.019 266.281 C 238.215 268.682,236.235 269.531,231.589 269.468 C 226.529 269.398,224.832 268.063,222.769 262.524 C 221.092 258.025,216.594 254.097,204.443 246.519 C 199.578 243.486,200.418 243.410,193.989 247.466 C 179.115 256.851,176.239 259.338,174.211 264.571 C 172.174 269.830,169.607 271.549,164.391 271.150 C 157.935 270.657,156.167 267.894,159.717 263.846 C 160.593 262.848,161.526 261.609,161.791 261.094 L 162.273 260.156 161.567 260.781 C 161.179 261.125,160.212 262.248,159.418 263.277 C 157.775 265.407,157.508 265.170,158.264 262.252 C 158.965 259.550,158.898 259.128,157.385 256.697 C 154.956 252.794,155.023 252.443,158.519 250.710 C 162.252 248.859,163.858 248.380,167.188 248.125 C 168.946 247.990,171.175 247.568,172.656 247.090 C 176.977 245.694,191.875 239.031,191.875 238.494 C 191.875 237.720,185.635 234.259,177.083 230.288 C 174.017 228.865,170.503 227.080,169.272 226.322 C 167.535 225.251,166.930 225.018,166.565 225.280 C 164.318 226.889,163.625 226.742,161.848 224.286 C 160.611 222.576,159.984 222.274,156.158 221.545 C 152.225 220.795,152.500 220.781,152.500 221.743 C 152.500 225.225,146.920 224.891,143.595 221.211 C 139.076 216.209,144.655 209.478,150.756 212.571 C 151.820 213.110,152.150 213.144,153.256 212.830 C 155.670 212.145,156.158 211.835,156.874 210.529 C 158.297 207.935,158.741 207.754,161.719 208.550 M324.545 211.891 C 329.110 217.355,326.731 220.314,321.406 215.795 L 320.156 214.734 320.860 213.383 C 321.247 212.639,321.564 211.527,321.563 210.911 C 321.562 208.957,322.294 209.197,324.545 211.891 M193.359 209.922 C 192.715 210.068,192.616 210.938,193.243 210.938 C 193.761 210.938,194.509 210.109,194.156 209.927 C 194.019 209.856,193.660 209.853,193.359 209.922 M117.727 221.847 C 118.525 224.063,118.914 223.587,113.281 227.286 C 111.047 228.754,108.826 230.281,108.346 230.681 L 107.474 231.406 108.422 233.359 C 108.944 234.434,109.494 235.313,109.646 235.313 C 110.183 235.313,112.561 234.377,116.367 232.668 C 121.072 230.555,120.802 230.554,121.752 232.702 C 122.649 234.731,122.686 234.671,120.000 235.607 C 117.774 236.383,105.418 241.178,100.497 243.175 C 96.935 244.621,97.334 244.800,95.861 241.094 C 92.857 233.538,92.805 231.674,95.521 228.958 C 97.881 226.598,100.768 226.010,103.611 227.311 L 105.418 228.139 106.537 227.392 C 107.153 226.982,109.625 225.153,112.031 223.329 C 117.176 219.428,116.884 219.504,117.727 221.847 M280.402 222.993 C 286.055 225.187,295.210 228.522,298.376 229.540 C 302.478 230.860,302.623 230.975,302.016 232.429 C 301.150 234.502,301.300 234.492,296.458 232.774 C 280.530 227.120,276.971 225.862,276.484 225.716 C 275.844 225.524,275.814 225.143,276.287 223.263 C 276.711 221.579,276.755 221.577,280.402 222.993 M338.224 224.398 C 336.542 225.024,336.429 230.625,338.098 230.625 C 338.739 230.625,343.125 227.344,343.125 226.865 C 343.125 226.085,339.115 224.067,338.224 224.398 M348.494 225.527 C 345.692 226.518,344.087 228.774,345.313 230.000 C 346.637 231.324,348.361 230.483,350.193 227.619 C 351.886 224.973,351.478 224.471,348.494 225.527 M330.161 228.828 C 328.517 230.521,323.673 237.149,323.223 238.321 C 323.137 238.545,323.501 239.373,324.033 240.161 C 324.565 240.949,325.000 241.661,325.000 241.744 C 325.000 242.339,328.573 249.069,328.842 248.980 C 330.156 248.542,333.438 236.555,333.438 232.192 C 333.438 226.131,333.109 225.793,330.161 228.828 M99.506 230.615 C 98.133 231.170,97.110 232.825,97.321 234.146 C 97.502 235.276,99.180 239.375,99.463 239.375 C 100.597 239.375,105.624 237.012,105.627 236.478 C 105.630 235.743,103.656 231.091,103.176 230.703 C 102.634 230.265,100.498 230.214,99.506 230.615 M280.899 232.331 C 294.459 236.943,299.921 245.595,292.540 250.773 C 287.832 254.075,272.316 246.592,270.591 240.187 C 268.982 234.210,274.364 230.108,280.899 232.331 M340.279 233.635 C 339.291 234.825,340.576 240.917,342.318 243.298 C 342.936 244.144,343.035 243.940,343.476 240.888 C 344.186 235.973,342.157 231.371,340.279 233.635 M275.545 235.633 C 274.893 236.034,273.750 238.171,273.750 238.989 C 273.750 241.501,283.206 247.633,287.682 248.024 C 291.441 248.352,293.331 245.117,290.958 242.414 C 287.492 238.467,277.841 234.221,275.545 235.633 M124.467 238.828 C 126.262 241.264,132.188 249.706,132.188 249.827 C 132.188 250.062,112.395 263.428,110.721 264.323 C 109.901 264.762,109.390 264.186,105.092 257.969 C 100.671 251.574,101.006 252.321,102.064 251.208 C 104.560 248.583,104.755 248.682,108.015 254.219 C 109.128 256.109,110.348 257.972,110.727 258.357 L 111.416 259.058 113.514 257.576 C 116.015 255.809,115.999 255.903,114.189 253.573 C 111.782 250.473,111.812 250.118,114.619 248.383 C 115.921 247.579,116.233 247.815,117.984 250.928 C 118.663 252.136,119.401 253.124,119.623 253.124 C 119.955 253.125,125.119 249.842,126.050 249.039 C 126.303 248.820,123.046 243.925,120.708 241.011 C 119.417 239.402,119.473 239.138,121.264 238.412 C 123.214 237.621,123.616 237.673,124.467 238.828 M321.994 244.297 C 322.100 244.770,322.268 246.703,322.368 248.594 C 322.606 253.068,322.675 253.212,323.642 251.271 L 324.456 249.637 323.460 246.537 C 322.560 243.736,321.511 242.132,321.994 244.297 M269.195 245.699 C 270.239 246.599,272.975 249.025,275.275 251.089 C 277.574 253.154,281.020 256.189,282.931 257.834 C 287.656 261.899,287.460 261.571,286.077 263.102 C 284.548 264.795,284.146 264.766,277.854 262.516 C 270.383 259.843,268.125 259.336,268.125 260.331 C 268.125 260.477,270.656 262.800,273.750 265.495 C 279.955 270.898,279.779 270.647,278.376 272.094 C 277.070 273.442,276.918 273.416,274.783 271.477 C 273.785 270.570,271.281 268.359,269.219 266.564 C 267.156 264.769,264.133 262.097,262.500 260.628 C 260.867 259.158,258.934 257.478,258.203 256.894 C 256.587 255.603,256.547 255.041,257.980 253.782 C 259.432 252.507,259.068 252.450,267.478 255.283 C 277.734 258.738,277.931 258.468,269.997 251.841 C 263.906 246.753,263.984 246.863,265.328 245.234 C 266.588 243.708,266.931 243.749,269.195 245.699 M318.249 246.719 C 313.623 253.322,307.811 266.932,307.814 271.154 C 307.820 278.451,310.813 278.423,315.781 271.079 C 319.527 265.543,321.886 264.062,319.880 268.506 C 318.383 271.824,318.661 272.656,320.783 271.208 C 322.113 270.300,322.499 269.263,322.502 266.594 C 322.503 265.337,322.694 264.166,322.991 263.596 C 323.459 262.700,323.447 262.636,322.707 262.034 C 320.870 260.540,319.948 258.247,319.823 254.856 C 319.759 253.131,319.527 250.383,319.307 248.750 L 318.906 245.781 318.249 246.719 M322.966 256.250 C 323.278 260.741,323.562 260.951,325.047 257.792 C 326.375 254.966,326.374 254.936,324.929 254.364 C 324.366 254.142,323.643 253.737,323.322 253.464 C 322.755 252.983,322.745 253.066,322.966 256.250 M138.563 256.125 C 139.887 257.450,139.933 257.784,138.948 258.960 C 137.835 260.290,134.918 264.744,130.487 271.875 C 124.337 281.775,124.797 281.269,123.340 279.749 C 121.960 278.308,122.559 277.036,129.598 266.470 C 130.720 264.786,131.568 263.339,131.483 263.254 C 131.315 263.086,128.074 265.037,125.313 266.968 C 116.587 273.069,116.706 273.018,115.063 271.376 L 113.939 270.252 114.704 269.660 C 115.125 269.334,116.383 268.511,117.500 267.830 C 118.617 267.149,123.328 263.997,127.969 260.825 C 137.352 254.410,137.003 254.565,138.563 256.125 M77.641 258.294 C 79.243 260.023,81.080 265.625,80.044 265.625 C 79.555 265.625,78.380 263.649,77.443 261.250 C 75.985 257.518,76.048 256.576,77.641 258.294 M224.419 260.494 C 224.872 260.996,225.887 262.420,226.673 263.658 C 227.504 264.966,228.495 266.113,229.036 266.393 C 230.130 266.958,231.102 267.032,230.101 266.473 C 229.726 266.265,228.561 264.939,227.511 263.529 C 226.461 262.118,225.150 260.653,224.598 260.272 L 223.594 259.581 224.419 260.494 M202.905 261.820 C 216.549 268.538,214.341 291.214,198.546 306.589 C 191.062 313.874,188.548 314.472,186.001 309.573 C 184.783 307.233,184.783 307.234,188.440 305.311 C 194.544 302.102,200.236 295.977,199.572 293.333 C 199.328 292.361,198.601 292.042,194.164 290.961 C 184.693 288.654,180.319 282.147,181.871 272.672 C 183.369 263.522,194.596 257.729,202.905 261.820 M170.054 264.617 C 169.037 265.953,167.730 267.423,167.149 267.883 C 166.414 268.467,166.252 268.725,166.616 268.735 C 167.680 268.765,169.760 266.737,171.008 264.453 C 172.593 261.552,172.356 261.592,170.054 264.617 M353.310 267.820 C 350.091 270.480,346.448 272.042,339.101 273.911 C 330.834 276.013,325.553 278.754,318.609 284.542 C 314.410 288.043,312.951 288.534,314.036 286.080 C 315.576 282.599,314.798 282.494,306.563 285.075 C 295.537 288.531,280.467 299.987,273.933 309.880 C 269.628 316.398,271.856 318.408,280.000 315.351 C 289.080 311.943,293.791 308.766,301.875 300.601 C 309.664 292.734,311.343 291.625,310.150 295.133 C 309.455 297.178,309.653 297.541,311.803 298.161 C 315.549 299.242,319.108 298.523,320.104 296.484 C 320.805 295.049,321.065 295.021,321.553 296.328 C 321.761 296.887,322.049 297.642,322.191 298.007 C 322.539 298.898,324.753 299.894,326.953 300.149 C 328.758 300.358,329.163 300.675,328.268 301.176 C 324.464 303.305,320.980 309.322,321.856 312.248 C 322.384 314.010,321.876 314.480,320.682 313.336 C 318.268 311.023,315.023 311.641,297.344 317.782 C 287.330 321.261,287.538 321.136,286.566 324.283 C 285.258 328.516,285.836 329.433,291.465 332.060 C 297.460 334.858,297.790 335.023,297.980 335.331 C 298.627 336.377,309.654 328.114,317.818 320.465 C 336.150 303.291,342.183 295.005,352.189 273.261 C 355.386 266.313,355.438 266.062,353.310 267.820 M194.790 268.436 C 189.027 269.291,186.225 277.626,190.293 281.817 C 194.253 285.898,201.124 285.337,203.676 280.723 C 207.361 274.062,202.469 267.297,194.790 268.436 M302.138 271.584 C 301.215 272.100,300.127 278.887,300.618 281.063 C 300.995 282.735,301.359 283.018,302.321 282.387 C 304.926 280.680,304.747 270.124,302.138 271.584 M290.296 283.704 C 286.923 285.869,284.407 289.207,282.544 293.988 C 281.141 297.589,281.166 297.670,283.125 295.900 C 291.046 288.745,294.057 284.918,292.811 283.593 C 291.905 282.628,291.978 282.625,290.296 283.704 M110.063 295.063 C 109.514 295.611,109.600 296.061,110.391 296.785 C 112.592 298.803,116.711 299.505,117.303 297.963 C 117.832 296.585,111.198 293.927,110.063 295.063 M309.385 301.728 C 302.609 303.639,295.553 309.674,297.759 311.670 C 298.630 312.459,299.057 312.322,301.196 310.570 C 303.325 308.827,304.326 308.765,306.050 310.273 C 306.594 310.748,306.666 310.731,307.144 310.019 C 308.920 307.376,312.283 305.155,318.258 302.681 C 320.147 301.899,319.312 301.573,314.981 301.401 C 312.041 301.283,310.677 301.363,309.385 301.728 M260.267 306.797 C 260.962 308.114,259.701 311.681,258.748 311.092 C 258.394 310.874,258.564 307.128,258.956 306.484 C 259.216 306.060,259.973 306.240,260.267 306.797 M128.021 307.396 C 127.400 308.017,128.123 309.077,131.310 312.219 C 136.192 317.032,136.667 317.209,135.098 313.633 C 132.956 308.751,129.613 305.804,128.021 307.396 M279.624 310.591 C 279.856 311.286,274.090 316.250,273.051 316.250 C 272.339 316.250,273.087 315.185,275.391 312.919 C 278.380 309.980,279.259 309.496,279.624 310.591 M250.670 313.278 C 249.595 314.502,249.607 314.468,249.504 316.719 C 249.465 317.578,249.309 318.987,249.157 319.849 C 248.610 322.953,249.435 323.899,250.911 321.863 C 254.046 317.534,253.826 309.683,250.670 313.278 M109.649 319.258 C 115.532 322.228,115.230 322.569,108.594 320.451 C 104.829 319.250,103.539 318.501,103.848 317.696 C 104.192 316.800,105.454 317.140,109.649 319.258 M78.750 321.974 C 78.750 322.395,84.142 327.493,88.594 331.282 C 96.616 338.110,104.865 343.829,113.438 348.504 C 118.369 351.193,119.143 351.563,119.845 351.563 C 121.015 351.563,121.050 351.020,119.914 350.481 C 117.697 349.429,115.699 347.302,116.406 346.746 C 117.519 345.871,118.519 345.819,122.969 346.408 C 129.071 347.214,130.173 346.981,132.666 344.357 L 133.594 343.380 132.370 342.315 C 130.534 340.718,129.420 340.509,126.169 341.154 C 122.569 341.869,121.119 341.462,120.378 339.531 C 120.115 338.844,119.859 338.230,119.810 338.168 C 119.761 338.106,119.056 338.281,118.243 338.559 C 113.417 340.203,97.549 335.415,94.076 331.267 C 92.504 329.388,90.198 327.828,86.979 326.464 C 84.816 325.547,82.323 324.162,79.609 322.371 C 79.137 322.058,78.750 321.880,78.750 321.974 M275.385 322.958 C 268.611 325.418,267.835 326.869,272.533 328.291 C 276.511 329.496,279.276 328.483,279.892 325.596 C 280.793 321.374,280.392 321.140,275.385 322.958 M163.559 329.970 C 161.081 331.481,160.523 333.579,162.344 334.539 L 163.594 335.198 163.594 347.189 L 163.594 359.179 162.615 359.433 C 161.514 359.718,161.261 360.299,161.254 362.560 C 161.249 364.433,160.964 364.345,166.250 364.109 L 170.781 363.906 170.881 362.686 C 171.029 360.875,170.722 360.066,169.683 359.529 L 168.750 359.046 168.750 344.400 C 168.750 327.902,169.005 329.374,166.146 329.376 C 165.112 329.377,164.182 329.591,163.559 329.970 M182.011 329.946 C 178.470 331.609,176.719 334.315,176.719 338.125 L 176.719 340.781 178.199 342.920 L 179.679 345.060 178.150 346.827 C 173.176 352.578,174.441 360.184,180.899 363.356 C 190.732 368.185,200.195 355.129,192.622 347.181 L 190.978 345.455 192.347 343.328 C 195.691 338.132,194.377 332.922,189.020 330.130 C 187.417 329.294,183.612 329.194,182.011 329.946 M199.375 337.921 C 199.375 345.452,199.435 346.519,199.869 346.685 C 200.818 347.049,205.331 346.881,206.187 346.450 C 210.789 344.133,214.567 346.823,214.915 352.663 C 215.307 359.231,209.374 362.045,204.946 357.392 L 203.149 355.503 201.452 356.038 C 199.118 356.774,198.824 357.196,199.679 358.580 C 205.221 367.546,217.686 365.395,219.123 355.224 C 220.391 346.247,216.670 341.585,208.224 341.569 C 203.724 341.561,203.872 341.708,204.215 337.598 C 204.490 334.295,204.319 334.375,211.114 334.375 L 216.250 334.375 216.245 332.422 C 216.238 329.352,216.802 329.544,207.512 329.438 L 199.375 329.345 199.375 337.921 M223.017 332.686 C 222.713 337.656,222.769 345.158,223.117 346.073 C 223.487 347.046,226.877 347.223,229.560 346.410 C 235.201 344.698,238.122 346.679,238.598 352.538 C 238.981 357.244,237.408 359.139,232.963 359.327 L 230.408 359.435 228.731 357.508 C 226.892 355.393,226.559 355.318,223.914 356.423 C 222.580 356.980,222.549 357.355,223.702 358.947 C 230.735 368.656,242.969 364.661,242.969 352.656 C 242.969 345.031,239.874 341.847,232.188 341.563 L 227.969 341.406 228.080 338.125 C 228.217 334.099,227.471 334.559,234.166 334.375 L 239.844 334.219 239.935 332.500 C 240.097 329.450,240.374 329.547,231.168 329.434 L 223.222 329.337 223.017 332.686 M187.479 334.954 C 187.896 335.256,188.509 336.026,188.840 336.664 C 191.010 340.845,184.377 344.258,181.865 340.253 C 179.667 336.750,184.135 332.531,187.479 334.954 M275.627 335.185 C 274.011 335.886,273.049 336.876,273.480 337.395 C 274.485 338.606,279.180 336.572,278.639 335.160 C 278.408 334.559,277.046 334.570,275.627 335.185 M140.938 349.030 C 139.648 349.511,137.891 350.259,137.031 350.693 C 133.477 352.488,131.510 352.922,127.877 352.715 L 124.531 352.524 125.938 353.784 C 128.958 356.490,129.166 356.595,132.412 357.055 C 135.921 357.552,141.449 357.622,143.281 357.192 C 143.969 357.031,146.901 356.801,149.797 356.682 L 155.062 356.464 154.858 354.404 C 154.404 349.836,154.310 349.706,150.694 348.704 C 147.498 347.817,143.862 347.939,140.938 349.030 M187.925 349.379 C 192.585 352.334,190.685 359.351,185.219 359.370 C 180.780 359.385,178.145 354.344,180.848 351.005 C 182.879 348.495,185.560 347.879,187.925 349.379 M279.314 350.414 C 279.461 352.669,276.834 354.375,273.214 354.375 C 269.347 354.375,271.547 351.517,277.031 349.416 C 279.072 348.634,279.202 348.691,279.314 350.414 " stroke="none" fill="#000000" fill-rule="evenodd"/></g></svg>